<svg width="83" height="83" viewBox="0 0 83 83" fill="none" xmlns="http://www.w3.org/2000/svg">
<g clip-path="url(#clip0_1_5)">
<path d="M44.3107 81.517L44.2692 81.5239L44.0237 81.6449L43.9545 81.6587L43.9061 81.6449L43.6605 81.5204C43.6236 81.5112 43.596 81.5181 43.5775 81.5412L43.5637 81.5757L43.5049 83.0559L43.5222 83.1251L43.5568 83.17L43.9165 83.426L43.9683 83.4398L44.0098 83.426L44.3695 83.17L44.411 83.1147L44.4248 83.0559L44.366 81.5792C44.3568 81.5423 44.3384 81.5216 44.3107 81.517ZM45.2237 81.1262L45.1753 81.1331L44.539 81.4547L44.5044 81.4893L44.494 81.5273L44.5562 83.0144L44.5735 83.0559L44.6012 83.0836L45.2963 83.4017C45.3401 83.4133 45.3736 83.4041 45.3966 83.3741L45.4105 83.3257L45.2929 81.2023C45.2813 81.1584 45.2583 81.1331 45.2237 81.1262ZM42.751 81.1331C42.7358 81.1238 42.7175 81.1209 42.7001 81.1247C42.6827 81.1286 42.6675 81.139 42.6576 81.1538L42.6369 81.2023L42.5193 83.3257C42.5216 83.3672 42.5412 83.3948 42.5781 83.4087L42.63 83.4017L43.3251 83.0801L43.3597 83.0525L43.37 83.0144L43.4323 81.5273L43.4219 81.4858L43.3873 81.4513L42.751 81.1331Z" fill="url(#paint0_linear_1_5)"/>
<path d="M32.2511 18.9243C34.3192 12.8723 42.6815 12.689 45.1334 18.3745L45.3409 18.9278L48.1318 27.0895C48.7714 28.9612 49.805 30.6741 51.1628 32.1124C52.5206 33.5508 54.1711 34.6812 56.003 35.4275L56.7534 35.7076L64.9151 38.495C70.9672 40.5631 71.1505 48.9254 65.4684 51.3773L64.9151 51.5848L56.7534 54.3757C54.881 55.0149 53.1675 56.0483 51.7285 57.4061C50.2896 58.7639 49.1586 60.4147 48.4119 62.2469L48.1318 62.9939L45.3444 71.159C43.2763 77.2111 34.9141 77.3944 32.4656 71.7123L32.2511 71.159L29.4637 62.9973C28.8246 61.1249 27.7912 59.4114 26.4333 57.9724C25.0755 56.5335 23.4248 55.4025 21.5926 54.6558L20.8456 54.3757L12.6839 51.5883C6.62835 49.5202 6.44506 41.158 12.1306 38.7095L12.6839 38.495L20.8456 35.7076C22.7173 35.068 24.4302 34.0345 25.8685 32.6766C27.3069 31.3188 28.4373 29.6683 29.1836 27.8365L29.4637 27.0895L32.2511 18.9243ZM66.4644 7C67.1114 7 67.7454 7.18149 68.2944 7.52384C68.8434 7.86619 69.2853 8.35568 69.57 8.93667L69.736 9.34129L70.9464 12.8895L74.4981 14.1C75.1465 14.3202 75.7149 14.728 76.1313 15.2717C76.5476 15.8153 76.7932 16.4704 76.8369 17.1537C76.8806 17.8371 76.7205 18.5181 76.3768 19.1103C76.0331 19.7026 75.5213 20.1795 74.9062 20.4806L74.4981 20.6466L70.9499 21.857L69.7395 25.4087C69.5188 26.0569 69.1107 26.625 68.5668 27.041C68.023 27.457 67.3679 27.7022 66.6845 27.7456C66.0012 27.7889 65.3203 27.6284 64.7283 27.2844C64.1362 26.9405 63.6596 26.4285 63.3588 25.8133L63.1929 25.4087L61.9824 21.8605L58.4307 20.65C57.7824 20.4298 57.214 20.022 56.7976 19.4783C56.3812 18.9347 56.1356 18.2796 56.0919 17.5963C56.0482 16.9129 56.2084 16.2319 56.5521 15.6397C56.8958 15.0474 57.4076 14.5705 58.0226 14.2694L58.4307 14.1034L61.979 12.893L63.1894 9.34129C63.4226 8.65801 63.8638 8.06485 64.4511 7.64498C65.0384 7.2251 65.7425 6.99957 66.4644 7Z" fill="url(#paint1_linear_1_5)"/>
</g>
<defs>
<linearGradient id="paint0_linear_1_5" x1="43.9649" y1="81.1231" x2="43.9649" y2="83.4398" gradientUnits="userSpaceOnUse">
<stop offset="0.0929999" stop-color="#C6667B"/>
<stop offset="1" stop-color="#4796E3"/>
</linearGradient>
<linearGradient id="paint1_linear_1_5" x1="70.7559" y1="14.0832" x2="26.9573" y2="63.981" gradientUnits="userSpaceOnUse">
<stop offset="0.00089558" stop-color="#4A96E2"/>
<stop offset="0.105607" stop-color="#9396DB"/>
<stop offset="0.245889" stop-color="#C6667B"/>
<stop offset="0.595714" stop-color="#9396DB"/>
<stop offset="1" stop-color="#4796E3"/>
</linearGradient>
<clipPath id="clip0_1_5">
<rect width="83" height="83" fill="white"/>
</clipPath>
</defs>
</svg>
