<svg width="78" height="78" viewBox="0 0 78 78" fill="none" xmlns="http://www.w3.org/2000/svg">
<path fill-rule="evenodd" clip-rule="evenodd" d="M42.4911 1.53597C42.0369 1.07016 41.4941 0.699958 40.8946 0.447193C40.2952 0.194428 39.6512 0.064209 39.0006 0.064209C38.35 0.064209 37.706 0.194428 37.1065 0.447193C36.5071 0.699958 35.9643 1.07016 35.5101 1.53597L32.3998 4.7291C31.7877 5.35808 31.017 5.81012 30.1693 6.0375C29.3215 6.26488 28.4281 6.25917 27.5833 6.02097L23.2933 4.81197C22.6672 4.63576 22.012 4.58665 21.3666 4.66754C20.7211 4.74842 20.0984 4.95767 19.5351 5.28295C18.9717 5.60824 18.4792 6.04297 18.0865 6.56155C17.6937 7.08013 17.4088 7.67206 17.2483 8.30247L16.1466 12.6217C15.9306 13.472 15.4891 14.2482 14.8688 14.8686C14.2485 15.4889 13.4722 15.9303 12.622 16.1463L8.30271 17.2432C7.6723 17.4036 7.08037 17.6886 6.56179 18.0813C6.04321 18.4741 5.60848 18.9666 5.2832 19.5299C4.95792 20.0933 4.74867 20.716 4.66778 21.3615C4.58689 22.0069 4.636 22.662 4.81221 23.2882L6.02121 27.5831C6.25941 28.4279 6.26512 29.3213 6.03774 30.169C5.81036 31.0168 5.35832 31.7874 4.72934 32.3996L1.53621 35.5098C1.0704 35.964 0.700202 36.5068 0.447437 37.1063C0.194672 37.7058 0.0644531 38.3498 0.0644531 39.0003C0.0644531 39.6509 0.194672 40.2949 0.447437 40.8944C0.700202 41.4939 1.0704 42.0367 1.53621 42.4908L4.72934 45.606C5.35747 46.2177 5.80899 46.9875 6.03634 47.8343C6.2637 48.6811 6.25847 49.5735 6.02121 50.4176L4.81221 54.7076C4.636 55.3338 4.58689 55.9889 4.66778 56.6343C4.74867 57.2798 4.95792 57.9025 5.2832 58.4659C5.60848 59.0292 6.04321 59.5218 6.56179 59.9145C7.08037 60.3072 7.6723 60.5922 8.30271 60.7526L12.622 61.8543C13.4722 62.0703 14.2485 62.5118 14.8688 63.1321C15.4891 63.7525 15.9306 64.5287 16.1466 65.379L17.2435 69.6982C17.4034 70.3291 17.6879 70.9215 18.0804 71.4406C18.4729 71.9598 18.9654 72.395 19.5288 72.7208C20.0922 73.0466 20.7151 73.2562 21.3608 73.3374C22.0065 73.4186 22.662 73.3697 23.2885 73.1936L27.5833 71.9846C28.4277 71.7458 29.3208 71.7393 30.1686 71.9658C31.0163 72.1923 31.7871 72.6435 32.3998 73.2716L35.5101 76.4647C35.9643 76.9305 36.5071 77.3007 37.1065 77.5535C37.706 77.8063 38.35 77.9365 39.0006 77.9365C39.6512 77.9365 40.2952 77.8063 40.8946 77.5535C41.4941 77.3007 42.0369 76.9305 42.4911 76.4647L45.6062 73.2716C46.2184 72.6443 46.9885 72.1937 47.8353 71.9672C48.682 71.7407 49.5742 71.7467 50.4178 71.9846L54.7078 73.1936C55.3343 73.3697 55.9898 73.4186 56.6355 73.3374C57.2812 73.2562 57.9041 73.0466 58.4675 72.7208C59.0309 72.395 59.5234 71.9598 59.9159 71.4406C60.3084 70.9215 60.593 70.3291 60.7528 69.6982L61.8546 65.379C62.0706 64.5287 62.512 63.7525 63.1324 63.1321C63.7527 62.5118 64.5289 62.0703 65.3792 61.8543L69.6985 60.7575C70.3293 60.5976 70.9218 60.313 71.4409 59.9205C71.96 59.528 72.3953 59.0355 72.7211 58.4722C73.0468 57.9088 73.2565 57.2858 73.3377 56.6401C73.4189 55.9944 73.37 55.339 73.1938 54.7125L71.9848 50.4225C71.746 49.5781 71.7396 48.685 71.9661 47.8373C72.1926 46.9895 72.6437 46.2187 73.2718 45.606L76.465 42.4908C76.9308 42.0367 77.301 41.4939 77.5537 40.8944C77.8065 40.2949 77.9367 39.6509 77.9367 39.0003C77.9367 38.3498 77.8065 37.7058 77.5537 37.1063C77.301 36.5068 76.9308 35.964 76.465 35.5098L73.2718 32.3996C72.6437 31.7869 72.1926 31.016 71.9661 30.1683C71.7396 29.3206 71.746 28.4274 71.9848 27.5831L73.1938 23.2931C73.37 22.6666 73.4189 22.0112 73.3377 21.3654C73.2565 20.7197 73.0468 20.0968 72.7211 19.5334C72.3953 18.97 71.96 18.4776 71.4409 18.0851C70.9218 17.6926 70.3293 17.408 69.6985 17.2481L65.3792 16.1463C64.5289 15.9303 63.7527 15.4889 63.1324 14.8686C62.512 14.2482 62.0706 13.472 61.8546 12.6217L60.7577 8.30247C60.5973 7.67206 60.3123 7.08013 59.9196 6.56155C59.5269 6.04297 59.0343 5.60824 58.471 5.28295C57.9077 4.95767 57.2849 4.74842 56.6395 4.66754C55.994 4.58665 55.3389 4.63576 54.7127 4.81197L50.4227 6.02097C49.5772 6.26011 48.6828 6.26631 47.8341 6.0389C46.9854 5.81149 46.214 5.35893 45.6013 4.7291L42.4911 1.53597ZM57.394 30.6641C58.0921 29.9905 58.4941 29.0671 58.5115 28.0971C58.5289 27.1271 58.1602 26.1899 57.4866 25.4917C56.813 24.7935 55.8896 24.3915 54.9196 24.3742C53.9496 24.3568 53.0124 24.7255 52.3142 25.3991L32.161 44.8601L25.7406 38.4495C25.0534 37.7642 24.1221 37.38 23.1517 37.3814C22.1812 37.3828 21.251 37.7696 20.5658 38.4568C19.8805 39.144 19.4963 40.0752 19.4977 41.0457C19.4991 42.0162 19.8859 42.9463 20.5731 43.6316L29.5382 52.5723C30.2153 53.2488 31.1306 53.6328 32.0876 53.642C33.0447 53.6511 33.9671 53.2845 34.657 52.6211L57.394 30.6641Z" fill="#00E2A6"/>
</svg>
