<svg width="83" height="83" viewBox="0 0 83 83" fill="none" xmlns="http://www.w3.org/2000/svg">
<path d="M41.5 6.91667C60.6004 6.91667 76.0833 22.3996 76.0833 41.5C76.0833 60.6004 60.6004 76.0833 41.5 76.0833C22.3996 76.0833 6.91667 60.6004 6.91667 41.5C6.91667 22.3996 22.3996 6.91667 41.5 6.91667ZM57.3945 25.6055C57.052 25.263 56.5998 25.052 56.1173 25.0097C55.6348 24.9673 55.1527 25.0962 54.7558 25.3738C44.7635 32.3896 39.1218 36.5419 37.8307 37.8307C36.8576 38.8039 36.3108 40.1237 36.3108 41.5C36.3108 42.8763 36.8576 44.1961 37.8307 45.1693C38.8039 46.1424 40.1237 46.6892 41.5 46.6892C42.8763 46.6892 44.1961 46.1424 45.1693 45.1693C45.9255 44.4108 50.0732 38.7656 57.6124 28.2338C57.893 27.8408 58.0251 27.361 57.9852 26.8797C57.9453 26.3985 57.736 25.947 57.3945 25.6055ZM60.5208 38.0417C59.6036 38.0417 58.724 38.406 58.0754 39.0546C57.4269 39.7032 57.0625 40.5828 57.0625 41.5C57.0625 42.4172 57.4269 43.2968 58.0754 43.9454C58.724 44.594 59.6036 44.9583 60.5208 44.9583C61.438 44.9583 62.3177 44.594 62.9662 43.9454C63.6148 43.2968 63.9792 42.4172 63.9792 41.5C63.9792 40.5828 63.6148 39.7032 62.9662 39.0546C62.3177 38.406 61.438 38.0417 60.5208 38.0417ZM22.4792 38.0417C21.562 38.0417 20.6823 38.406 20.0338 39.0546C19.3852 39.7032 19.0208 40.5828 19.0208 41.5C19.0208 42.4172 19.3852 43.2968 20.0338 43.9454C20.6823 44.594 21.562 44.9583 22.4792 44.9583C23.3964 44.9583 24.276 44.594 24.9246 43.9454C25.5731 43.2968 25.9375 42.4172 25.9375 41.5C25.9375 40.5828 25.5731 39.7032 24.9246 39.0546C24.276 38.406 23.3964 38.0417 22.4792 38.0417ZM30.4956 25.6055C30.1766 25.2752 29.795 25.0117 29.373 24.8305C28.9511 24.6492 28.4973 24.5538 28.0381 24.5498C27.5789 24.5459 27.1235 24.6334 26.6985 24.8072C26.2735 24.9811 25.8873 25.2379 25.5626 25.5626C25.2379 25.8873 24.9811 26.2735 24.8072 26.6985C24.6334 27.1235 24.5459 27.5789 24.5498 28.0381C24.5538 28.4973 24.6492 28.9511 24.8305 29.373C25.0117 29.795 25.2752 30.1766 25.6055 30.4956C26.2577 31.1255 27.1313 31.4741 28.0381 31.4662C28.9449 31.4584 29.8123 31.0947 30.4535 30.4535C31.0947 29.8123 31.4584 28.9449 31.4662 28.0381C31.4741 27.1313 31.1255 26.2577 30.4956 25.6055ZM41.5 19.0208C40.5828 19.0208 39.7032 19.3852 39.0546 20.0338C38.406 20.6823 38.0417 21.562 38.0417 22.4792C38.0417 23.3964 38.406 24.276 39.0546 24.9246C39.7032 25.5731 40.5828 25.9375 41.5 25.9375C42.4172 25.9375 43.2968 25.5731 43.9454 24.9246C44.594 24.276 44.9583 23.3964 44.9583 22.4792C44.9583 21.562 44.594 20.6823 43.9454 20.0338C43.2968 19.3852 42.4172 19.0208 41.5 19.0208Z" fill="url(#paint0_angular_1_2)"/>
<defs>
<radialGradient id="paint0_angular_1_2" cx="0" cy="0" r="1" gradientUnits="userSpaceOnUse" gradientTransform="translate(41.5 41.5) rotate(-46.1934) scale(33.9487)">
<stop stop-color="#32A7CE"/>
<stop offset="1" stop-color="#1AA64D"/>
</radialGradient>
</defs>
</svg>
