<svg width="41" height="41" viewBox="0 0 41 41" fill="none" xmlns="http://www.w3.org/2000/svg">
<path d="M11.6106 33.7302C9.09972 33.7302 6.95469 32.8611 5.17554 31.1228C3.39638 29.3844 2.50625 27.2598 2.50515 24.7489C2.50515 22.5967 3.15357 20.6791 4.45041 18.9959C5.74725 17.3128 7.44418 16.2367 9.54119 15.7676C10.231 13.2291 11.6106 11.1735 13.68 9.60074C15.7495 8.02798 18.0948 7.2416 20.7161 7.2416C23.9444 7.2416 26.6832 8.36626 28.9325 10.6156C31.1819 12.8649 32.306 15.6032 32.3049 18.8304C34.2087 19.0511 35.7887 19.8723 37.0447 21.2938C38.3007 22.7154 38.9281 24.3775 38.927 26.2803C38.927 28.3497 38.203 30.109 36.755 31.5582C35.3069 33.0073 33.5476 33.7313 31.4771 33.7302H11.6106Z" fill="white"/>
</svg>
