<svg width="83" height="83" viewBox="0 0 83 83" fill="none" xmlns="http://www.w3.org/2000/svg">
<path d="M61.0742 38.7333C60.2788 37.6958 59.3104 36.7967 58.4113 35.8975C56.0942 33.8225 53.4658 32.3354 51.2525 30.1567C46.0996 25.1075 44.9583 16.7729 48.2438 10.375C44.9583 11.1704 42.0879 12.9688 39.6325 14.94C30.6754 22.1333 27.1479 34.8254 31.3671 45.7192C31.5054 46.065 31.6437 46.4108 31.6437 46.8604C31.6437 47.6213 31.125 48.3129 30.4333 48.5896C29.6379 48.9354 28.8079 48.7279 28.1508 48.1746C27.9546 48.0102 27.7904 47.8108 27.6667 47.5867C23.7587 42.6413 23.1362 35.5517 25.7646 29.88C19.9892 34.5833 16.8421 42.5375 17.2917 50.0421C17.4992 51.7713 17.7067 53.5004 18.2946 55.2296C18.7788 57.3046 19.7125 59.3796 20.75 61.2125C24.485 67.1954 30.9521 71.4837 37.9033 72.3483C45.3042 73.2821 53.2238 71.9333 58.8954 66.815C65.2242 61.0742 67.4375 51.875 64.1867 43.99L63.7371 43.0908C63.0108 41.5 61.0742 38.7333 61.0742 38.7333ZM50.1458 60.5208C49.1775 61.3508 47.5867 62.25 46.3417 62.5958C42.4683 63.9792 38.595 62.0425 36.3125 59.76C40.4279 58.7917 42.8833 55.7483 43.6096 52.6704C44.1975 49.9037 43.0908 47.6213 42.6413 44.9583C42.2263 42.3992 42.2954 40.2204 43.2292 37.8342C43.8863 39.1483 44.5779 40.4625 45.4079 41.5C48.0708 44.9583 52.2554 46.48 53.1546 51.1833C53.2929 51.6675 53.3621 52.1517 53.3621 52.6704C53.4658 55.5062 52.2208 58.6187 50.1458 60.5208Z" fill="url(#paint0_linear_0_3)"/>
<defs>
<linearGradient id="paint0_linear_0_3" x1="40.9998" y1="33" x2="41.462" y2="72.6232" gradientUnits="userSpaceOnUse">
<stop stop-color="#FFDD00"/>
<stop offset="1" stop-color="#FF5100"/>
</linearGradient>
</defs>
</svg>
