<svg width="486" height="116" viewBox="0 0 486 116" fill="none" xmlns="http://www.w3.org/2000/svg">
<path d="M152.603 80.7776L152.209 77.101C151.902 77.4512 151.486 77.8889 150.961 78.4141C150.436 78.8956 149.801 79.377 149.057 79.8585C148.313 80.2962 147.46 80.6682 146.497 80.9746C145.577 81.3248 144.571 81.4998 143.477 81.4998C142.032 81.4998 140.653 81.3029 139.34 80.909C138.027 80.5588 136.867 80.0117 135.861 79.2676C134.898 78.5235 134.132 77.5606 133.563 76.3788C132.994 75.197 132.709 73.7964 132.709 72.1769C132.709 70.2948 133.081 68.6754 133.825 67.3185C134.569 65.9179 135.554 64.758 136.78 63.8388C138.005 62.9196 139.428 62.2412 141.047 61.8035C142.667 61.3658 144.33 61.147 146.037 61.147H151.552V58.9804C151.552 57.5798 150.917 56.5512 149.648 55.8946C148.423 55.1943 146.891 54.866 145.052 54.9098C143.564 54.9098 142.12 55.0849 140.719 55.435C139.362 55.7414 137.765 56.3323 135.926 57.2077V50.4453C137.59 49.7888 139.165 49.3292 140.653 49.0666C142.185 48.7602 143.652 48.607 145.052 48.607C149.823 48.5632 153.478 49.4605 156.017 51.2988C158.555 53.1371 159.824 55.9384 159.824 59.7026V80.7776H152.603ZM151.552 66.2024H147.875C145.468 66.2024 143.761 66.7276 142.754 67.7781C141.791 68.7848 141.31 70.0541 141.31 71.586C141.31 72.5927 141.66 73.4681 142.36 74.2122C143.105 74.9563 144.221 75.3283 145.709 75.3283C147.241 75.3283 148.466 75.0438 149.385 74.4748C150.348 73.862 151.071 73.2274 151.552 72.5708V66.2024ZM197.353 82.8786C197.353 85.1984 196.959 87.1461 196.171 88.7218C195.427 90.2975 194.376 91.545 193.019 92.4641C191.663 93.4271 190.043 94.1055 188.161 94.4994C186.323 94.9371 184.287 95.156 182.055 95.156C179.166 95.156 176.584 94.9152 174.308 94.4338C172.076 93.9961 170.303 93.5365 168.99 93.055V85.7017C170.259 86.2707 171.594 86.796 172.995 87.2774C174.177 87.6714 175.49 88.0215 176.934 88.3279C178.379 88.6343 179.845 88.7875 181.333 88.7875C182.471 88.7875 183.5 88.7218 184.419 88.5905C185.382 88.4592 186.191 88.1966 186.848 87.8027C187.505 87.4525 188.008 86.9273 188.358 86.227C188.752 85.5704 188.949 84.7169 188.949 83.6664V78.1515C188.249 78.8956 187.132 79.6396 185.601 80.3837C184.112 81.1278 182.449 81.4998 180.611 81.4998C171.638 81.4998 167.152 76.5539 167.152 66.6619C167.152 63.6856 167.633 61.0813 168.596 58.8491C169.559 56.5731 170.916 54.691 172.667 53.2028C174.417 51.6709 176.518 50.5328 178.969 49.7888C181.464 49.0009 184.222 48.607 187.242 48.607C188.643 48.607 190.196 48.6945 191.903 48.8696C193.654 49.0009 195.471 49.2416 197.353 49.5918V82.8786ZM188.949 55.2381C188.599 55.1943 188.139 55.1505 187.57 55.1068C187.045 55.063 186.432 55.0411 185.732 55.0411C184.069 55.0411 182.624 55.3694 181.399 56.0259C180.173 56.6825 179.145 57.5579 178.313 58.6521C177.525 59.7026 176.934 60.9281 176.54 62.3288C176.146 63.7294 175.949 65.1738 175.949 66.6619C175.949 69.9009 176.475 72.1769 177.525 73.49C178.576 74.8031 180.042 75.4596 181.924 75.4596C183.106 75.4596 184.375 75.1533 185.732 74.5405C187.089 73.8839 188.161 73.0742 188.949 72.1113V55.2381ZM224.091 80.7776L223.698 77.101C223.391 77.4512 222.975 77.8889 222.45 78.4141C221.925 78.8956 221.29 79.377 220.546 79.8585C219.802 80.2962 218.949 80.6682 217.986 80.9746C217.066 81.3248 216.06 81.4998 214.965 81.4998C213.521 81.4998 212.142 81.3029 210.829 80.909C209.516 80.5588 208.356 80.0117 207.35 79.2676C206.387 78.5235 205.621 77.5606 205.052 76.3788C204.483 75.197 204.198 73.7964 204.198 72.1769C204.198 70.2948 204.57 68.6754 205.314 67.3185C206.058 65.9179 207.043 64.758 208.269 63.8388C209.494 62.9196 210.917 62.2412 212.536 61.8035C214.156 61.3658 215.819 61.147 217.526 61.147H223.041V58.9804C223.041 57.5798 222.406 56.5512 221.137 55.8946C219.911 55.1943 218.38 54.866 216.541 54.9098C215.053 54.9098 213.609 55.0849 212.208 55.435C210.851 55.7414 209.254 56.3323 207.415 57.2077V50.4453C209.078 49.7888 210.654 49.3292 212.142 49.0666C213.674 48.7602 215.141 48.607 216.541 48.607C221.312 48.5632 224.967 49.4605 227.505 51.2988C230.044 53.1371 231.313 55.9384 231.313 59.7026V80.7776H224.091ZM223.041 66.2024H219.364C216.957 66.2024 215.25 66.7276 214.243 67.7781C213.28 68.7848 212.799 70.0541 212.799 71.586C212.799 72.5927 213.149 73.4681 213.849 74.2122C214.593 74.9563 215.71 75.3283 217.198 75.3283C218.73 75.3283 219.955 75.0438 220.874 74.4748C221.837 73.862 222.56 73.2274 223.041 72.5708V66.2024ZM260.307 57.0107C259.212 56.5731 258.206 56.2667 257.286 56.0916C256.367 55.9165 255.558 55.829 254.857 55.829C253.588 55.829 252.406 56.1354 251.312 56.7481C250.218 57.3609 249.364 58.2582 248.751 59.44V80.7776H240.348V49.3948H247.832L248.292 53.3998C249.123 52.1304 250.261 51.0143 251.706 50.0514C253.194 49.0884 254.704 48.607 256.236 48.607C256.98 48.607 257.746 48.6726 258.534 48.8039C259.322 48.9353 259.913 49.0447 260.307 49.1322V57.0107Z" fill="#0B5CA5"/>
<path d="M337.048 59.7538C337.048 60.4542 337.027 61.1326 336.983 61.7891C336.939 62.4457 336.895 63.0584 336.851 63.6274C336.764 64.284 336.698 64.8968 336.655 65.4658H317.155C317.374 66.9539 317.899 68.267 318.731 69.405C319.475 70.4117 320.547 71.309 321.948 72.0969C323.349 72.8847 325.34 73.2786 327.922 73.2786C328.973 73.2786 330.002 73.213 331.008 73.0817C332.015 72.9504 332.89 72.7972 333.634 72.6221C334.51 72.447 335.363 72.2282 336.195 71.9656V78.2684C335.276 78.4872 334.313 78.6842 333.306 78.8593C332.431 79.0344 331.468 79.1657 330.417 79.2532C329.367 79.3845 328.338 79.4502 327.332 79.4502C324.662 79.4502 322.145 79.0562 319.781 78.2684C317.462 77.4805 315.426 76.3644 313.675 74.92C311.925 73.4318 310.546 71.6373 309.539 69.5363C308.533 67.4354 308.029 65.0937 308.029 62.5113C308.029 60.4979 308.314 58.5502 308.883 56.6681C309.452 54.7422 310.327 53.0352 311.509 51.547C312.734 50.0589 314.266 48.8552 316.105 47.936C317.987 47.0169 320.197 46.5573 322.736 46.5573C324.705 46.5573 326.544 46.8199 328.251 47.3452C330.002 47.8704 331.512 48.6801 332.781 49.7744C334.094 50.8248 335.123 52.1817 335.867 53.8449C336.655 55.5082 337.048 57.4778 337.048 59.7538ZM329.104 59.6225C329.192 58.3094 329.039 57.1058 328.645 56.0115C328.295 55.0924 327.682 54.2608 326.806 53.5167C325.975 52.7288 324.684 52.3349 322.933 52.3349C321.27 52.3349 320 52.7288 319.125 53.5167C318.249 54.2608 317.637 55.0924 317.286 56.0115C316.849 57.1058 316.63 58.3094 316.63 59.6225H329.104ZM355.004 54.0419V68.7485C355.004 69.5363 355.048 70.2148 355.135 70.7838C355.267 71.309 355.485 71.7467 355.792 72.0969C356.098 72.4033 356.514 72.6221 357.039 72.7534C357.608 72.8847 358.33 72.9504 359.206 72.9504C359.819 72.9504 360.453 72.8847 361.11 72.7534C361.766 72.5783 362.357 72.3814 362.882 72.1625C363.495 71.9437 364.108 71.6811 364.721 71.3747V78.4653C364.108 78.6404 363.473 78.8155 362.817 78.9906C362.248 79.1219 361.613 79.2313 360.913 79.3189C360.212 79.4064 359.512 79.4502 358.812 79.4502C356.974 79.4502 355.31 79.297 353.822 78.9906C352.334 78.6842 351.043 78.159 349.949 77.4149C348.898 76.627 348.066 75.5766 347.454 74.2635C346.885 72.9504 346.6 71.2871 346.6 69.2737V54.0419H340.626V47.3452H346.6V39.8605L355.004 36.3809V47.3452H364.918V54.0419H355.004ZM390.411 78.728L389.952 74.7887C389.645 75.2702 389.207 75.7954 388.638 76.3644C388.113 76.8896 387.5 77.393 386.8 77.8745C386.1 78.3122 385.312 78.6842 384.437 78.9906C383.605 79.297 382.708 79.4502 381.745 79.4502C378.024 79.4502 375.157 78.4653 373.144 76.4957C371.131 74.5261 370.124 71.6592 370.124 67.895V47.3452H378.528V66.9758C378.528 69.1643 378.965 70.6962 379.841 71.5716C380.76 72.4033 382.073 72.8191 383.78 72.8191C385.137 72.8191 386.297 72.4033 387.26 71.5716C388.223 70.74 388.967 69.799 389.492 68.7485V47.3452H397.896V78.728H390.411Z" fill="#0B5CA5"/>
<path d="M299.997 48.5152H278.578C272.121 50.5158 272.019 58.1847 278.578 60.4076H287.801C294.873 62.1859 293.233 70.5218 287.801 72.1889H265.152" stroke="url(#paint0_linear_1_460)" stroke-width="7.04579"/>
<path d="M267.894 66.4861L262.36 72.2252L267.791 77.9643" stroke="#00643C" stroke-width="4.09937" stroke-linecap="square"/>
<path d="M297.204 54.2649L302.738 48.5257L297.307 42.7866" stroke="#FE6000" stroke-width="4.09937" stroke-linecap="square"/>
<path d="M115.183 78.728L98.9663 50.5622C98.4849 49.7744 98.0472 49.0303 97.6532 48.33C97.3031 47.5859 96.9748 46.9294 96.6684 46.3604C96.3183 45.7038 96.0119 45.091 95.7493 44.522H95.6179C95.7055 46.054 95.8149 47.6297 95.9462 49.2492C96.0338 50.6498 96.0994 52.1817 96.1432 53.845C96.2307 55.5082 96.2745 57.1058 96.2745 58.6377V78.728H88.199V34.083H99.0976L113.279 58.9004C113.979 60.0821 114.592 61.2202 115.117 62.3144C115.643 63.3649 116.08 64.3059 116.43 65.1375C116.868 66.1005 117.218 66.9759 117.481 67.7637H117.612C117.481 66.3193 117.371 64.853 117.284 63.3649C117.196 62.0955 117.131 60.7168 117.087 59.2286C117.043 57.7405 117.021 56.2961 117.021 54.8954V34.083H125.097V78.728H115.183Z" fill="#0B5CA5"/>
<path d="M126.824 37.6627L121.085 32.1285L115.346 37.5602" stroke="#0B5CA5" stroke-width="4.09937" stroke-linecap="square"/>
<path d="M86.3944 74.019L92.1335 79.5531L97.8726 74.1214" stroke="#0B5CA5" stroke-width="4.09937" stroke-linecap="square"/>
<mask id="mask0_1_460" style="mask-type:alpha" maskUnits="userSpaceOnUse" x="83" y="29" width="315" height="67">
<path d="M152.602 80.7777L152.208 77.101C151.902 77.4512 151.486 77.8889 150.961 78.4141C150.436 78.8956 149.801 79.3771 149.057 79.8585C148.313 80.2962 147.459 80.6683 146.497 80.9746C145.577 81.3248 144.571 81.4999 143.476 81.4999C142.032 81.4999 140.653 81.3029 139.34 80.909C138.027 80.5588 136.867 80.0117 135.861 79.2676C134.898 78.5235 134.132 77.5606 133.563 76.3788C132.994 75.1971 132.709 73.7964 132.709 72.1769C132.709 70.2949 133.081 68.6754 133.825 67.3185C134.569 65.9179 135.554 64.758 136.78 63.8388C138.005 62.9197 139.428 62.2412 141.047 61.8036C142.667 61.3659 144.33 61.147 146.037 61.147H151.552V58.9804C151.552 57.5798 150.917 56.5512 149.648 55.8947C148.422 55.1943 146.89 54.8661 145.052 54.9098C143.564 54.9098 142.12 55.0849 140.719 55.4351C139.362 55.7415 137.765 56.3323 135.926 57.2077V50.4453C137.589 49.7888 139.165 49.3292 140.653 49.0666C142.185 48.7602 143.652 48.607 145.052 48.607C149.823 48.5632 153.478 49.4605 156.016 51.2988C158.555 53.1372 159.824 55.9384 159.824 59.7026V80.7777H152.602ZM151.552 66.2024H147.875C145.468 66.2024 143.761 66.7276 142.754 67.7781C141.791 68.7848 141.31 70.0541 141.31 71.5861C141.31 72.5928 141.66 73.4682 142.36 74.2122C143.104 74.9563 144.221 75.3284 145.709 75.3284C147.241 75.3284 148.466 75.0439 149.385 74.4749C150.348 73.8621 151.07 73.2274 151.552 72.5709V66.2024ZM197.353 82.8786C197.353 85.1984 196.959 87.1462 196.171 88.7219C195.427 90.2976 194.376 91.545 193.019 92.4642C191.663 93.4271 190.043 94.1055 188.161 94.4995C186.323 94.9371 184.287 95.156 182.055 95.156C179.166 95.156 176.584 94.9153 174.308 94.4338C172.076 93.9961 170.303 93.5365 168.99 93.0551V85.7018C170.259 86.2708 171.594 86.796 172.995 87.2775C174.177 87.6714 175.49 88.0216 176.934 88.3279C178.378 88.6343 179.845 88.7875 181.333 88.7875C182.471 88.7875 183.499 88.7219 184.419 88.5906C185.382 88.4592 186.191 88.1966 186.848 87.8027C187.504 87.4525 188.008 86.9273 188.358 86.227C188.752 85.5705 188.949 84.7169 188.949 83.6665V78.1515C188.248 78.8956 187.132 79.6397 185.6 80.3838C184.112 81.1278 182.449 81.4999 180.611 81.4999C171.638 81.4999 167.152 76.5539 167.152 66.662C167.152 63.6856 167.633 61.0814 168.596 58.8491C169.559 56.5731 170.916 54.691 172.667 53.2028C174.417 51.6709 176.518 50.5329 178.969 49.7888C181.464 49.0009 184.222 48.607 187.242 48.607C188.642 48.607 190.196 48.6946 191.903 48.8696C193.654 49.0009 195.47 49.2417 197.353 49.5918V82.8786ZM188.949 55.2381C188.599 55.1943 188.139 55.1506 187.57 55.1068C187.045 55.063 186.432 55.0411 185.732 55.0411C184.068 55.0411 182.624 55.3694 181.399 56.026C180.173 56.6825 179.144 57.5579 178.313 58.6521C177.525 59.7026 176.934 60.9282 176.54 62.3288C176.146 63.7294 175.949 65.1738 175.949 66.662C175.949 69.9009 176.474 72.177 177.525 73.49C178.575 74.8031 180.042 75.4597 181.924 75.4597C183.106 75.4597 184.375 75.1533 185.732 74.5405C187.089 73.884 188.161 73.0742 188.949 72.1113V55.2381ZM224.091 80.7777L223.697 77.101C223.391 77.4512 222.975 77.8889 222.45 78.4141C221.925 78.8956 221.29 79.3771 220.546 79.8585C219.802 80.2962 218.948 80.6683 217.985 80.9746C217.066 81.3248 216.06 81.4999 214.965 81.4999C213.521 81.4999 212.142 81.3029 210.829 80.909C209.516 80.5588 208.356 80.0117 207.349 79.2676C206.387 78.5235 205.621 77.5606 205.052 76.3788C204.483 75.1971 204.198 73.7964 204.198 72.1769C204.198 70.2949 204.57 68.6754 205.314 67.3185C206.058 65.9179 207.043 64.758 208.269 63.8388C209.494 62.9197 210.917 62.2412 212.536 61.8036C214.156 61.3659 215.819 61.147 217.526 61.147H223.041V58.9804C223.041 57.5798 222.406 56.5512 221.137 55.8947C219.911 55.1943 218.379 54.8661 216.541 54.9098C215.053 54.9098 213.609 55.0849 212.208 55.4351C210.851 55.7415 209.253 56.3323 207.415 57.2077V50.4453C209.078 49.7888 210.654 49.3292 212.142 49.0666C213.674 48.7602 215.14 48.607 216.541 48.607C221.312 48.5632 224.967 49.4605 227.505 51.2988C230.044 53.1372 231.313 55.9384 231.313 59.7026V80.7777H224.091ZM223.041 66.2024H219.364C216.957 66.2024 215.25 66.7276 214.243 67.7781C213.28 68.7848 212.799 70.0541 212.799 71.5861C212.799 72.5928 213.149 73.4682 213.849 74.2122C214.593 74.9563 215.709 75.3284 217.198 75.3284C218.73 75.3284 219.955 75.0439 220.874 74.4749C221.837 73.8621 222.559 73.2274 223.041 72.5709V66.2024ZM260.306 57.0108C259.212 56.5731 258.205 56.2667 257.286 56.0916C256.367 55.9165 255.557 55.829 254.857 55.829C253.588 55.829 252.406 56.1354 251.312 56.7482C250.218 57.3609 249.364 58.2582 248.751 59.44V80.7777H240.347V49.3949H247.832L248.292 53.3998C249.123 52.1305 250.261 51.0143 251.706 50.0514C253.194 49.0885 254.704 48.607 256.236 48.607C256.98 48.607 257.746 48.6727 258.534 48.804C259.322 48.9353 259.913 49.0447 260.306 49.1322V57.0108Z" fill="#0B5CA5"/>
<path d="M337.048 59.7539C337.048 60.4542 337.027 61.1326 336.983 61.7892C336.939 62.4457 336.895 63.0585 336.851 63.6275C336.764 64.284 336.698 64.8968 336.654 65.4658H317.155C317.374 66.954 317.899 68.2671 318.731 69.4051C319.475 70.4118 320.547 71.309 321.948 72.0969C323.348 72.8848 325.34 73.2787 327.922 73.2787C328.973 73.2787 330.001 73.213 331.008 73.0817C332.015 72.9504 332.89 72.7972 333.634 72.6221C334.51 72.4471 335.363 72.2282 336.195 71.9656V78.2684C335.276 78.4873 334.313 78.6842 333.306 78.8593C332.431 79.0344 331.468 79.1657 330.417 79.2532C329.367 79.3845 328.338 79.4502 327.332 79.4502C324.662 79.4502 322.145 79.0563 319.781 78.2684C317.461 77.4806 315.426 76.3644 313.675 74.92C311.925 73.4319 310.546 71.6373 309.539 69.5364C308.532 67.4354 308.029 65.0938 308.029 62.5114C308.029 60.498 308.314 58.5502 308.883 56.6681C309.452 54.7422 310.327 53.0352 311.509 51.5471C312.734 50.0589 314.266 48.8552 316.105 47.9361C317.987 47.0169 320.197 46.5573 322.736 46.5573C324.705 46.5573 326.544 46.8199 328.251 47.3452C330.001 47.8704 331.512 48.6802 332.781 49.7744C334.094 50.8249 335.123 52.1817 335.867 53.845C336.654 55.5082 337.048 57.4778 337.048 59.7539ZM329.104 59.6226C329.192 58.3095 329.039 57.1058 328.645 56.0116C328.294 55.0924 327.682 54.2608 326.806 53.5167C325.975 52.7288 324.683 52.3349 322.933 52.3349C321.269 52.3349 320 52.7288 319.125 53.5167C318.249 54.2608 317.637 55.0924 317.286 56.0116C316.849 57.1058 316.63 58.3095 316.63 59.6226H329.104ZM355.004 54.0419V68.7485C355.004 69.5364 355.048 70.2148 355.135 70.7838C355.266 71.309 355.485 71.7467 355.792 72.0969C356.098 72.4033 356.514 72.6221 357.039 72.7534C357.608 72.8848 358.33 72.9504 359.206 72.9504C359.819 72.9504 360.453 72.8848 361.11 72.7534C361.766 72.5784 362.357 72.3814 362.882 72.1626C363.495 71.9437 364.108 71.6811 364.721 71.3747V78.4654C364.108 78.6405 363.473 78.8155 362.817 78.9906C362.248 79.1219 361.613 79.2313 360.913 79.3189C360.212 79.4064 359.512 79.4502 358.812 79.4502C356.973 79.4502 355.31 79.297 353.822 78.9906C352.334 78.6842 351.043 78.159 349.948 77.4149C348.898 76.6271 348.066 75.5766 347.454 74.2635C346.885 72.9504 346.6 71.2872 346.6 69.2738V54.0419H340.626V47.3452H346.6V39.8606L355.004 36.3809V47.3452H364.918V54.0419H355.004ZM390.411 78.728L389.951 74.7887C389.645 75.2702 389.207 75.7954 388.638 76.3644C388.113 76.8897 387.5 77.393 386.8 77.8745C386.1 78.3122 385.312 78.6842 384.437 78.9906C383.605 79.297 382.708 79.4502 381.745 79.4502C378.024 79.4502 375.157 78.4654 373.144 76.4957C371.131 74.5261 370.124 71.6592 370.124 67.895V47.3452H378.528V66.9759C378.528 69.1643 378.965 70.6963 379.841 71.5717C380.76 72.4033 382.073 72.8191 383.78 72.8191C385.137 72.8191 386.297 72.4033 387.26 71.5717C388.223 70.74 388.967 69.799 389.492 68.7485V47.3452H397.896V78.728H390.411Z" fill="#0B5CA5"/>
<path d="M299.997 48.5152H278.578C272.121 50.5158 272.019 58.1848 278.578 60.4077H287.801C294.873 62.186 293.233 70.5218 287.801 72.1889H265.152" stroke="url(#paint1_linear_1_460)" stroke-width="7.04579"/>
<path d="M267.894 66.4861L262.359 72.2252L267.791 77.9643" stroke="#00643C" stroke-width="4.09937" stroke-linecap="square"/>
<path d="M297.204 54.2649L302.738 48.5258L297.307 42.7867" stroke="#FE6000" stroke-width="4.09937" stroke-linecap="square"/>
<path d="M115.183 78.728L98.9662 50.5623C98.4848 49.7744 98.0471 49.0303 97.6531 48.33C97.303 47.5859 96.9747 46.9294 96.6683 46.3604C96.3182 45.7039 96.0118 45.0911 95.7492 44.5221H95.6179C95.7054 46.054 95.8148 47.6297 95.9461 49.2492C96.0337 50.6498 96.0993 52.1818 96.1431 53.845C96.2306 55.5082 96.2744 57.1058 96.2744 58.6378V78.728H88.1989V34.083H99.0975L113.279 58.9004C113.979 60.0822 114.592 61.2202 115.117 62.3144C115.642 63.3649 116.08 64.3059 116.43 65.1376C116.868 66.1005 117.218 66.9759 117.481 67.7637H117.612C117.481 66.3193 117.371 64.8531 117.284 63.3649C117.196 62.0956 117.131 60.7168 117.087 59.2287C117.043 57.7405 117.021 56.2961 117.021 54.8955V34.083H125.097V78.728H115.183Z" fill="#0B5CA5"/>
<path d="M126.824 37.6627L121.085 32.1285L115.346 37.5602" stroke="#0B5CA5" stroke-width="4.09937" stroke-linecap="square"/>
<path d="M86.3943 74.019L92.1334 79.5531L97.8725 74.1214" stroke="#0B5CA5" stroke-width="4.09937" stroke-linecap="square"/>
</mask>
<g mask="url(#mask0_1_460)">
<g filter="url(#filter0_f_1_460)">
<line x1="130.414" y1="63.412" x2="402.125" y2="64.5696" stroke="white" stroke-width="1.28105"/>
</g>
<g filter="url(#filter1_f_1_460)">
<line x1="93.5556" y1="32.5966" x2="121.611" y2="79.9955" stroke="white" stroke-width="1.28105"/>
</g>
</g>
<defs>
<filter id="filter0_f_1_460" x="125.889" y="58.2493" width="280.761" height="11.4829" filterUnits="userSpaceOnUse" color-interpolation-filters="sRGB">
<feFlood flood-opacity="0" result="BackgroundImageFix"/>
<feBlend mode="normal" in="SourceGraphic" in2="BackgroundImageFix" result="shape"/>
<feGaussianBlur stdDeviation="2.26106" result="effect1_foregroundBlur_1_460"/>
</filter>
<filter id="filter1_f_1_460" x="88.3798" y="27.6457" width="38.4067" height="57.3006" filterUnits="userSpaceOnUse" color-interpolation-filters="sRGB">
<feFlood flood-opacity="0" result="BackgroundImageFix"/>
<feBlend mode="normal" in="SourceGraphic" in2="BackgroundImageFix" result="shape"/>
<feGaussianBlur stdDeviation="2.3123" result="effect1_foregroundBlur_1_460"/>
</filter>
<linearGradient id="paint0_linear_1_460" x1="283.945" y1="69.1763" x2="283.945" y2="52.2024" gradientUnits="userSpaceOnUse">
<stop stop-color="#00643C"/>
<stop offset="0.297847" stop-color="white"/>
<stop offset="1" stop-color="#FE6000"/>
</linearGradient>
<linearGradient id="paint1_linear_1_460" x1="283.945" y1="69.1763" x2="283.945" y2="52.2024" gradientUnits="userSpaceOnUse">
<stop stop-color="#00643C"/>
<stop offset="0.297847" stop-color="white"/>
<stop offset="1" stop-color="#FE6000"/>
</linearGradient>
</defs>
</svg>
