<svg width="36" height="36" viewBox="0 0 36 36" fill="none" xmlns="http://www.w3.org/2000/svg">
<path fill-rule="evenodd" clip-rule="evenodd" d="M10.8355 10.7044C10.8358 9.31219 11.231 7.94867 11.9753 6.77216C12.7196 5.59565 13.7824 4.65443 15.0402 4.05781C16.2981 3.4612 17.6994 3.23368 19.0814 3.40168C20.4634 3.56968 21.7693 4.1263 22.8476 5.00689C23.9259 5.88749 24.7322 7.05592 25.173 8.37648C25.6137 9.69705 25.6707 11.1156 25.3375 12.4672C25.0042 13.8189 24.2943 15.0483 23.2902 16.0127C22.2861 16.977 21.0291 17.6367 19.665 17.9152V25.4203C19.665 25.8106 19.51 26.1849 19.234 26.4608C18.958 26.7368 18.5837 26.8919 18.1934 26.8919C17.8032 26.8919 17.4289 26.7368 17.1529 26.4608C16.8769 26.1849 16.7219 25.8106 16.7219 25.4203V17.9152C15.0599 17.5759 13.5662 16.6729 12.4935 15.3589C11.4209 14.0449 10.8351 12.4006 10.8355 10.7044ZM14.4983 24.0958C14.5276 24.287 14.5189 24.482 14.4727 24.6698C14.4266 24.8576 14.3439 25.0344 14.2294 25.1902C14.1148 25.346 13.9707 25.4777 13.8053 25.5778C13.6398 25.6779 13.4563 25.7444 13.2651 25.7735C11.3844 26.0604 9.89073 26.4931 8.90918 26.9728C8.4162 27.2141 8.12335 27.4334 7.97178 27.5938L7.94088 27.6277C7.98944 27.685 8.07332 27.7689 8.22048 27.8764C8.63252 28.181 9.3227 28.5165 10.3072 28.8241C12.26 29.4348 15.0487 29.835 18.1934 29.835C21.3382 29.835 24.1269 29.4348 26.0797 28.8241C27.0657 28.5165 27.7544 28.181 28.1664 27.8764C28.3136 27.7689 28.3975 27.685 28.446 27.6277L28.4151 27.5938C28.2635 27.4334 27.9707 27.2141 27.4777 26.9728C26.4962 26.4931 25.0025 26.0604 23.1218 25.7735C22.9285 25.7469 22.7425 25.6823 22.5744 25.5832C22.4064 25.4841 22.2597 25.3526 22.1429 25.1963C22.0262 25.0401 21.9417 24.8621 21.8943 24.6729C21.8469 24.4836 21.8376 24.2869 21.867 24.094C21.8964 23.9012 21.9638 23.7161 22.0653 23.5495C22.1669 23.3829 22.3005 23.2382 22.4585 23.1238C22.6165 23.0093 22.7956 22.9274 22.9856 22.8829C23.1755 22.8383 23.3724 22.8319 23.5648 22.8641C25.6073 23.1732 27.4233 23.6691 28.7727 24.3298C29.4452 24.6595 30.0736 25.0656 30.5504 25.5689C31.036 26.0795 31.4378 26.7756 31.4378 27.6277C31.4378 28.8211 30.6667 29.6879 29.9161 30.2427C29.1362 30.8195 28.1017 31.2757 26.9582 31.6333C24.6478 32.3544 21.5516 32.7782 18.1934 32.7782C14.8353 32.7782 11.7376 32.3544 9.43013 31.6333C8.28523 31.2757 7.25217 30.8195 6.47223 30.2427C5.72024 29.6879 4.94913 28.8211 4.94913 27.6277C4.94913 26.7741 5.35088 26.0795 5.8365 25.5674C6.31477 25.0641 6.94166 24.6595 7.61418 24.3313C8.96363 23.6691 10.781 23.1746 12.8207 22.8641C13.0118 22.8348 13.2068 22.8435 13.3946 22.8897C13.5824 22.9358 13.7592 23.0185 13.915 23.133C14.0708 23.2476 14.2026 23.3917 14.3026 23.5571C14.4027 23.7226 14.4692 23.9047 14.4983 24.0958Z" fill="white"/>
</svg>
