<svg width="41" height="41" viewBox="0 0 41 41" fill="none" xmlns="http://www.w3.org/2000/svg">
<path d="M20.694 15.5193C19.3768 15.5193 18.1135 16.0426 17.1821 16.974C16.2506 17.9054 15.7274 19.1687 15.7274 20.4859C15.7274 21.8031 16.2506 23.0664 17.1821 23.9978C18.1135 24.9293 19.3768 25.4525 20.694 25.4525C22.0112 25.4525 23.2745 24.9293 24.2059 23.9978C25.1373 23.0664 25.6606 21.8031 25.6606 20.4859C25.6606 19.1687 25.1373 17.9054 24.2059 16.974C23.2745 16.0426 22.0112 15.5193 20.694 15.5193ZM20.694 28.7636C18.4986 28.7636 16.3931 27.8915 14.8408 26.3391C13.2884 24.7868 12.4163 22.6813 12.4163 20.4859C12.4163 18.2905 13.2884 16.1851 14.8408 14.6327C16.3931 13.0803 18.4986 12.2082 20.694 12.2082C22.8894 12.2082 24.9948 13.0803 26.5472 14.6327C28.0996 16.1851 28.9717 18.2905 28.9717 20.4859C28.9717 22.6813 28.0996 24.7868 26.5472 26.3391C24.9948 27.8915 22.8894 28.7636 20.694 28.7636ZM20.694 8.06937C12.4163 8.06937 5.34713 13.2181 2.48304 20.4859C5.34713 27.7537 12.4163 32.9025 20.694 32.9025C28.9717 32.9025 36.0408 27.7537 38.9049 20.4859C36.0408 13.2181 28.9717 8.06937 20.694 8.06937Z" fill="white"/>
</svg>
