<svg width="500" height="433" viewBox="0 0 500 433" fill="none" xmlns="http://www.w3.org/2000/svg">
<g clip-path="url(#clip0_1_6)">
<mask id="mask0_1_6" style="mask-type:luminance" maskUnits="userSpaceOnUse" x="0" y="0" width="500" height="433">
<path d="M500 0H0V433H500V0Z" fill="white"/>
</mask>
<g mask="url(#mask0_1_6)">
<path d="M114.722 175.212C113.922 179.349 113.721 183.494 114.071 187.545L114.071 187.543L106.112 188.774L106.945 192.688L107.777 196.6L108.61 200.512L116.391 198.394C117.748 202.298 119.636 206.003 122 209.394L115.713 214.447L118.391 217.419L121.068 220.391L123.746 223.363L129.417 217.645C132.49 220.308 135.962 222.581 139.781 224.362L136.864 231.878L140.67 233.113L144.474 234.349L148.279 235.584L150.334 227.789C154.471 228.59 158.618 228.79 162.668 228.44L163.898 236.399L167.811 235.566L171.723 234.734L175.636 233.901L173.517 226.119C177.422 224.764 181.126 222.874 184.517 220.511L189.57 226.797L192.542 224.12L195.514 221.443L198.487 218.765L192.769 213.093C192.768 213.094 192.768 213.094 192.768 213.094C195.431 210.022 197.703 206.55 199.485 202.731L207.001 205.647L208.236 201.842L209.471 198.038L210.707 194.231L202.912 192.177C203.712 188.04 203.914 183.894 203.564 179.844L211.522 178.614L210.689 174.7L209.857 170.788L209.024 166.875L201.243 168.993C199.886 165.089 197.997 161.385 195.634 157.994L201.92 152.942L199.243 149.968L196.566 146.996L193.889 144.024L188.217 149.743C185.145 147.079 181.672 144.807 177.853 143.026L180.769 135.509L176.965 134.274L173.16 133.038L169.355 131.803L167.3 139.599C163.163 138.798 159.018 138.598 154.967 138.948L153.736 130.988L149.824 131.821L145.911 132.653L141.997 133.488L144.117 141.268C140.213 142.625 136.509 144.513 133.117 146.876L128.064 140.59L125.092 143.268L122.12 145.945L119.147 148.623L124.865 154.294C122.202 157.366 119.931 160.839 118.149 164.658L110.633 161.741L109.397 165.548L108.162 169.352L106.927 173.157L114.722 175.212ZM166.234 160.848C178.852 164.944 185.761 178.494 181.664 191.112C177.567 203.73 164.017 210.637 151.399 206.541C138.782 202.445 131.873 188.895 135.97 176.277C140.066 163.659 153.617 156.751 166.234 160.848Z" fill="#9FCEB6"/>
<path d="M150.007 210.832C164.994 215.698 181.089 207.492 185.955 192.504C190.82 177.517 182.615 161.422 167.627 156.556C152.64 151.69 136.545 159.897 131.679 174.883C126.813 189.871 135.019 205.966 150.007 210.832ZM163.38 169.639C171.142 172.159 175.392 180.495 172.872 188.257C170.352 196.019 162.016 200.269 154.254 197.749C146.492 195.229 142.242 186.893 144.762 179.131C147.282 171.369 155.618 167.119 163.38 169.639Z" fill="#C9F4DF"/>
<path d="M287.535 150.704C288.581 152.946 289.915 154.985 291.479 156.79L291.478 156.789L288.121 160.12L289.866 161.691L291.611 163.263L293.357 164.835L296.323 161.144C298.315 162.532 300.49 163.642 302.783 164.438L301.538 169.007L303.836 169.496L306.134 169.985L308.43 170.473L309.154 165.8C311.532 166.006 313.966 165.887 316.395 165.417L317.602 169.995L319.836 169.27L322.071 168.544L324.304 167.819L322.592 163.405C324.834 162.359 326.874 161.026 328.678 159.461L328.677 159.462L332.007 162.818L333.579 161.075L335.152 159.329L336.724 157.584L333.032 154.617C334.421 152.626 335.529 150.45 336.326 148.157L340.895 149.401L341.384 147.104L341.872 144.807L342.362 142.51L337.688 141.786L337.688 141.787C337.894 139.408 337.776 136.975 337.305 134.545L341.883 133.338L341.158 131.104L340.433 128.87L339.707 126.636L335.293 128.348C334.248 126.105 332.913 124.067 331.349 122.262L334.707 118.932L332.962 117.361L331.217 115.789L329.472 114.216L326.505 117.908C324.513 116.52 322.338 115.41 320.045 114.614L321.29 110.045L318.993 109.556L316.695 109.067L314.397 108.578L313.674 113.251L313.675 113.252C311.297 113.046 308.863 113.163 306.433 113.634L305.226 109.057L302.993 109.782L300.758 110.507L298.524 111.233L300.236 115.646C297.994 116.692 295.954 118.026 294.151 119.589L290.821 116.233L289.249 117.977L287.677 119.723L286.104 121.468L289.796 124.435C288.408 126.426 287.299 128.602 286.502 130.895L281.934 129.65L281.444 131.948L280.956 134.245L280.466 136.542L285.14 137.265C284.934 139.643 285.052 142.077 285.523 144.506L280.945 145.714L281.67 147.948L282.395 150.182L283.121 152.416L287.535 150.704ZM307.059 126.111C314.468 123.706 322.424 127.761 324.83 135.17C327.235 142.579 323.179 150.535 315.769 152.941C308.36 155.346 300.404 151.29 297.999 143.881C295.594 136.472 299.65 128.517 307.059 126.111Z" fill="#C9F4DF"/>
<path d="M312.15 148.232C311.811 147.188 312.383 146.066 313.427 145.727C314.472 145.388 315.593 145.96 315.932 147.004C316.271 148.049 315.699 149.17 314.655 149.509C313.611 149.848 312.489 149.276 312.15 148.232Z" fill="#C9F4DF"/>
<path d="M306.896 132.047C306.557 131.002 307.128 129.881 308.173 129.542C309.217 129.203 310.338 129.775 310.677 130.819C311.016 131.863 310.445 132.985 309.4 133.324C308.356 133.663 307.235 133.091 306.896 132.047Z" fill="#C9F4DF"/>
<path d="M302.708 140.262C303.752 139.923 304.874 140.495 305.213 141.539C305.552 142.584 304.98 143.705 303.936 144.044C302.891 144.383 301.77 143.811 301.431 142.767C301.092 141.723 301.664 140.601 302.708 140.262Z" fill="#C9F4DF"/>
<path d="M318.893 135.008C319.938 134.669 321.059 135.24 321.398 136.285C321.737 137.329 321.165 138.45 320.121 138.789C319.077 139.128 317.955 138.557 317.616 137.512C317.277 136.468 317.849 135.347 318.893 135.008Z" fill="#C9F4DF"/>
<path d="M424.255 131.654L433.031 293.548L431.212 306.666L421.823 133.461" fill="#5E826C"/>
<path d="M423.432 299.18L440.659 298.246L439.249 272.238L422.023 273.172L423.432 299.18Z" fill="#5E826C"/>
<path d="M434.358 278.649C434.47 280.717 432.884 282.484 430.817 282.596C428.749 282.708 426.981 281.123 426.869 279.055C426.757 276.987 428.343 275.219 430.411 275.107C432.479 274.995 434.246 276.581 434.358 278.649Z" fill="#85B79C"/>
<path d="M432.005 316.388C432.423 316.366 432.837 316.297 433.242 316.177C435.378 315.547 436.894 313.654 437.402 310.98C438.323 306.094 434.658 302.982 433.321 302.028L433.102 297.996L431.086 298.105L431.361 303.178L431.823 303.453C432.002 303.562 436.251 306.184 435.416 310.604C435.051 312.535 434.076 313.826 432.671 314.24C431.369 314.626 429.897 314.201 428.918 313.17C428.373 312.594 427.598 311.406 427.978 309.516C428.078 309.024 427.806 308.53 427.333 308.363C426.754 308.159 426.121 308.516 426.001 309.118C425.589 311.19 426.095 313.129 427.454 314.56C428.651 315.82 430.344 316.478 432.005 316.388Z" fill="#5E826C"/>
<path d="M202.127 311.947L137.853 261.369V310.698L67.987 271.414V355.375H43.144V432.668H299.78V358.154H276.676V310.698L202.127 261.369V311.947Z" fill="#ABD7BE"/>
<path d="M94.001 327.335H81.195V312.001H94.001V327.335Z" fill="#B8E9D2"/>
<path d="M111.168 327.335H98.362V312.001H111.168V327.335Z" fill="#B8E9D2"/>
<path d="M94.001 346.255H81.195V330.921H94.001V346.255Z" fill="#B8E9D2"/>
<path d="M111.168 346.255H98.362V330.921H111.168V346.255Z" fill="#B8E9D2"/>
<path d="M130.501 388.335H117.695V373.001H130.501V388.335Z" fill="#B8E9D2"/>
<path d="M147.668 388.335H134.862V373.001H147.668V388.335Z" fill="#B8E9D2"/>
<path d="M130.501 407.255H117.695V391.921H130.501V407.255Z" fill="#B8E9D2"/>
<path d="M147.668 407.255H134.862V391.921H147.668V407.255Z" fill="#B8E9D2"/>
<path d="M163.751 327.335H150.945V312.001H163.751V327.335Z" fill="#B8E9D2"/>
<path d="M180.918 327.335H168.112V312.001H180.918V327.335Z" fill="#B8E9D2"/>
<path d="M163.751 346.255H150.945V330.921H163.751V346.255Z" fill="#B8E9D2"/>
<path d="M180.918 346.255H168.112V330.921H180.918V346.255Z" fill="#B8E9D2"/>
<path d="M162.36 306.928H179.272V249.504H162.36V306.928Z" fill="#ABD7BE"/>
<path d="M83.872 306.928H100.784V224.516H83.872V306.928Z" fill="#ABD7BE"/>
<path d="M220.636 352.741H251.857V338.587H220.636V352.741Z" fill="#B8E9D2"/>
<path d="M302.907 432.667H323.947V377.849H302.907V432.667Z" fill="#96C8AC"/>
<path d="M320.107 432.301H406.001V319.603H320.107V432.301Z" fill="#ABD7BE"/>
<path d="M342.621 326.274H372.407V267.917H342.621V326.274Z" fill="#ABD7BE"/>
<path d="M333.499 321.888H349.893V301.252H333.499V321.888Z" fill="#ABD7BE"/>
<path d="M383.219 321.888H394.071V313.98H383.219V321.888Z" fill="#ABD7BE"/>
<path d="M387.568 315.338H389.723V309.406H387.568V315.338Z" fill="#ABD7BE"/>
<path d="M337.079 432.301H372.407V357.674H337.079V432.301Z" fill="#9FCEB6"/>
<path d="M389.307 432.667H409.66V378.789H389.307V432.667Z" fill="#96C8AC"/>
<path d="M399.553 432.449H450.713V365.323H399.553V432.449Z" fill="#ABD7BE"/>
<path d="M412.962 369.298H430.703V334.539H412.962V369.298Z" fill="#ABD7BE"/>
<path d="M407.53 366.685H417.294V354.393H407.53V366.685Z" fill="#ABD7BE"/>
<path d="M437.142 366.684H443.606V361.974H437.142V366.684Z" fill="#ABD7BE"/>
<path d="M439.732 362.784H441.016V359.251H439.732V362.784Z" fill="#ABD7BE"/>
<path d="M409.661 432.45H425.133V374.22H409.661V432.45Z" fill="#9FCEB6"/>
<path d="M385.254 104.925L252.494 315.705L250.357 314.358L384.262 101.761" fill="#5E826C"/>
<path d="M234.976 432.668H239.436L381.934 119.733L417.795 134.656L305.194 432.668H309.533L422.98 132.415L379.869 114.476L234.976 432.668Z" fill="#9FCEB6"/>
<path d="M364.5 154.801L381.902 219.409L317.057 258.476L341.87 331.817L263.039 373.102L290.673 432.668H295.147L268.35 374.902L346.828 333.803L321.948 260.267L386.617 221.308L369.342 157.171L421.175 135.407L419.603 131.665L364.5 154.801Z" fill="#9FCEB6"/>
<path d="M380.718 118.572L401.81 170.682L344.136 203.63L362.075 276.965L292.39 311.138L317.54 395.348L241.282 422.449L244.325 432.667H248.561L246.272 424.984L322.534 397.882L297.263 313.269L366.794 279.172L348.805 205.636L406.904 172.447L384.481 117.049L380.718 118.572Z" fill="#9FCEB6"/>
<path d="M362.965 156.655L404.989 174.142L406.549 170.396L364.525 152.908L362.965 156.655Z" fill="#9FCEB6"/>
<path d="M340.644 204.528L386.573 222.923L388.082 219.154L342.152 200.759L340.644 204.528Z" fill="#9FCEB6"/>
<path d="M316.658 260.385L363.534 279.379L365.06 275.617L318.183 256.623L316.658 260.385Z" fill="#9FCEB6"/>
<path d="M291.564 313.455L344.079 335.308L345.638 331.56L293.124 309.707L291.564 313.455Z" fill="#9FCEB6"/>
<path d="M263.433 375.258L320.647 398.7L322.187 394.944L264.973 371.502L263.433 375.258Z" fill="#9FCEB6"/>
<path d="M242.124 426.439L257.09 432.667H267.655L243.683 422.691L242.124 426.439Z" fill="#9FCEB6"/>
<path d="M377.422 114.312L425.102 134.153L429.39 123.847C434.869 110.68 428.637 95.566 415.471 90.087C402.305 84.609 387.19 90.839 381.711 104.006L377.422 114.312Z" fill="#9FCEB6"/>
<path d="M415.676 108.277C415.676 113.122 411.749 117.049 406.904 117.049C402.06 117.049 398.132 113.122 398.132 108.277C398.132 103.433 402.06 99.505 406.904 99.505C411.749 99.505 415.676 103.433 415.676 108.277Z" fill="white"/>
<path d="M84.891 432.667H96.721V361.724H84.891V432.667Z" fill="#1E0E02"/>
<path d="M245.301 389.137H65.667V349.887H245.301V389.137Z" fill="#FFC021"/>
<path d="M65.667 374.224L80.58 389.137H96.721L65.667 358.085V374.224Z" fill="#1E0E02"/>
<path d="M74.895 349.888L114.145 389.138H130.285L91.035 349.888H74.895Z" fill="#1E0E02"/>
<path d="M108.459 349.888L147.709 389.138H163.849L124.599 349.888H108.459Z" fill="#1E0E02"/>
<path d="M142.023 349.888L181.273 389.138H197.413L158.163 349.888H142.023Z" fill="#1E0E02"/>
<path d="M175.587 349.888L214.837 389.138H230.977L191.727 349.888H175.587Z" fill="#1E0E02"/>
<path d="M245.301 369.897L225.291 349.887H209.151L245.301 386.037V369.897Z" fill="#1E0E02"/>
<path d="M401.935 432.667H413.765V361.724H401.935V432.667Z" fill="#1E0E02"/>
<path d="M434.333 389.137H254.699V349.887H434.333V389.137Z" fill="#FFC021"/>
<path d="M254.7 374.224L269.613 389.137H285.752L254.7 358.085V374.224Z" fill="#1E0E02"/>
<path d="M263.926 349.888L303.176 389.138H319.316L280.066 349.888H263.926Z" fill="#1E0E02"/>
<path d="M297.491 349.888L336.741 389.138H352.881L313.631 349.888H297.491Z" fill="#1E0E02"/>
<path d="M331.055 349.888L370.305 389.138H386.445L347.195 349.888H331.055Z" fill="#1E0E02"/>
<path d="M364.619 349.888L403.869 389.138H420.009L380.759 349.888H364.619Z" fill="#1E0E02"/>
<path d="M434.333 369.897L414.323 349.887H398.183L434.333 386.037V369.897Z" fill="#1E0E02"/>
<path d="M190.564 361.353L185.04 432.666H244.199L249.278 406.474H253.094L259.05 432.666H316.202L305.981 358.836L248.801 344.918L190.564 361.353Z" fill="#05022F"/>
<path d="M208.25 386.037C241.222 382.97 277.576 388.371 308.026 373.611L305.981 358.835L248.801 344.918L190.565 361.352L187.602 399.588C192.613 393.066 199.714 386.813 208.25 386.037Z" fill="#04041E"/>
<path d="M232.193 164.277L183.76 181.359C183.76 181.359 202.327 196.026 196.484 265.561C190.641 335.096 185.69 364.844 185.69 364.844C185.69 364.844 230.23 369.504 240.359 367.167C250.487 364.83 248.801 344.918 248.801 344.918C248.801 344.918 246.849 359.922 255.68 366.075C264.51 372.227 310.001 362.244 310.001 362.244C310.001 362.244 299.852 252.001 301.411 227.848C302.969 203.695 316.24 181.359 316.24 181.359L266.192 163.655L232.193 164.277Z" fill="#297EB8"/>
<path d="M239.738 192.437C239.738 192.437 241.087 196.62 246.349 201.747C243.246 214.429 240.412 226.842 240.412 226.842H261.324L255.388 201.341C255.388 201.341 260.784 196.08 262.808 190.683C257.006 187.85 251.88 186.636 247.968 187.85C244.055 189.064 239.738 192.437 239.738 192.437Z" fill="white"/>
<path d="M261.823 192.847L259.411 189.187C257.03 188.257 254.796 187.658 252.751 187.459L249.522 187.504C248.985 187.581 248.466 187.696 247.967 187.851C244.055 189.065 239.738 192.438 239.738 192.438C239.738 192.438 240.367 194.381 242.429 197.239C243.602 195.062 246.9 189.485 250.162 188.997C256.45 191.578 258.12 194.31 258.221 194.765C258.322 195.22 256.703 198.61 255.641 199.116C254.707 199.561 246.621 199.927 244.678 200.009C244.696 200.533 244.864 201.241 245.168 202.253C245.373 203.215 245.303 203.467 245.705 204.389C248.127 204.036 253.042 203.546 256.184 204.761L257.141 199.461C257.141 199.461 259.688 197.598 261.823 192.847Z" fill="#C4D5CA"/>
<path d="M306.368 268.329C297.647 252.746 294.042 229.675 295.779 213.08C297.516 196.485 306.368 177.867 306.368 177.867C306.368 177.867 288.578 169.772 280.306 168.647C278.51 183.713 264.293 209.236 251.745 219.557C239.198 211.664 221.592 187.783 219.802 168.647C205.655 170.081 192.394 178.314 192.394 178.314C192.394 178.314 203.176 189.605 204.222 218.746C205.268 247.888 195.485 253.555 195.485 253.555C195.485 253.555 191.109 310.391 189.009 333.867C204.392 335.408 226.023 337.331 248.862 337.964V332.939H253.82V338.078C277.17 338.5 295.75 338.577 307.633 333.428C307.633 328.166 307.577 295.444 306.368 268.329Z" fill="#EA8000"/>
<path d="M253.094 333.426H249.716V218.165H253.094V333.426Z" fill="#1E0E02"/>
<path d="M225.553 336.881C226.317 322.795 228.621 286.657 230.289 263.674C232.317 235.747 226.778 207.616 221.149 193.045C216.921 182.099 212.671 173.832 210.819 170.395C207.331 171.369 204.098 172.591 201.341 173.782C205.819 180.585 219.266 203.247 221.149 232.643C223.055 262.41 217.616 317.704 215.851 336.213C219.014 336.448 222.256 336.673 225.553 336.881Z" fill="#9B5217"/>
<path d="M280.134 232.642C281.93 204.598 294.251 182.684 299.269 174.819C296.49 173.678 293.204 172.389 289.993 171.276C287.956 175.123 284.037 182.941 280.134 193.044C274.505 207.615 268.966 235.746 270.993 263.674C272.703 287.226 275.081 324.884 275.784 337.882C279.145 337.742 282.406 337.543 285.534 337.279C283.889 320.169 278.189 263.007 280.134 232.642Z" fill="#9B5217"/>
<g opacity="0.3">
<path d="M307.402 305.561C307.265 296.645 307.048 286.582 306.702 276.785L239.602 267.182C239.602 267.182 209.245 272.106 193.838 274.708C193.023 285.09 192.011 297.855 191.056 309.581C204.186 310.459 235.563 310.317 249.278 290.819C269.15 306.347 297.268 306.198 307.402 305.561Z" fill="#D5C6A4"/>
</g>
<path d="M229.966 158.446C229.966 158.446 234.644 154.594 248.709 154.493C262.774 154.392 269.715 156.618 269.715 156.618C269.715 156.618 271.679 165.319 268.137 171.188C264.596 177.057 232.008 177.867 232.008 177.867C232.008 177.867 227.362 164.119 229.966 158.446Z" fill="#1571A4"/>
<path d="M236.413 187.682H264.945C268.612 180.785 270.383 171.966 270.566 167.889C265.256 161.186 265.68 143.68 265.68 143.68L232.411 145.689C232.411 145.689 233.527 158.417 230.29 166.567C230.736 175.316 232.823 182.479 236.413 187.682Z" fill="#FAAE7A"/>
<path d="M267.47 160.923C265.627 169.766 259.129 177.846 251.623 183.143C242.341 179.265 235.063 171.589 231.522 162.411C231.206 163.865 230.803 165.274 230.289 166.567C230.735 175.316 232.823 182.48 236.412 187.683H264.944C268.611 180.786 270.383 171.966 270.565 167.889C269.178 166.137 268.184 163.645 267.47 160.923Z" fill="#F7A169"/>
<path d="M232.418 145.769C232.421 145.81 232.425 145.868 232.43 145.942C232.431 145.954 232.432 145.96 232.433 145.973C232.446 146.149 232.463 146.408 232.482 146.733C232.482 146.743 232.483 146.751 232.483 146.761C232.58 148.45 232.705 151.955 232.42 155.881C232.419 155.895 232.419 155.91 232.418 155.924C232.361 156.705 232.286 157.501 232.193 158.303C239.68 164.376 250.598 165.609 259.887 160.302C262.855 158.817 264.669 156.41 266.193 153.799C265.569 148.356 265.681 143.679 265.681 143.679L232.41 145.69C232.41 145.69 232.412 145.713 232.415 145.748C232.416 145.756 232.417 145.759 232.418 145.769Z" fill="#F7A169"/>
<path d="M269.715 156.617C269.715 156.617 269.348 173.213 250.428 187.177C238.995 179.891 231.055 161.894 229.966 158.446C226.246 164.51 225.295 166.709 225.295 166.709C225.295 166.709 225.616 189.807 237.466 198.105C240.063 191.84 249.912 188.39 249.912 188.39C249.912 188.39 261.459 189.807 263.483 199.117C270.97 188.998 274.433 170.873 275.029 166.781C273.399 160.868 269.715 156.617 269.715 156.617Z" fill="#5EBEEA"/>
<path d="M269.715 156.617C269.715 156.617 271.166 173.834 250.428 187.177C235.5 179.667 231.055 161.894 229.966 158.446C226.246 164.51 225.295 166.709 225.295 166.709C225.295 166.709 225.616 189.807 237.466 198.105C240.063 191.84 249.912 188.39 249.912 188.39C249.912 188.39 261.459 189.807 263.483 199.117C270.97 188.998 274.433 170.873 275.029 166.781C273.399 160.868 269.715 156.617 269.715 156.617Z" fill="#3D9ACE"/>
<path d="M190.252 321.214C190.252 321.214 207.267 323.918 238.635 325.197C270.003 326.477 308.486 321.214 308.486 321.214C308.486 321.214 312.861 347.376 311.546 369.414C281.595 377.104 211.418 381.54 184.531 371.421C185.167 347.136 190.252 321.214 190.252 321.214Z" fill="#9B5217"/>
<path d="M188.473 331.799C188.473 331.799 206.015 334.586 238.353 335.906C268.085 337.119 304.013 332.63 309.613 331.899C309.036 325.433 308.485 321.215 308.485 321.215C308.485 321.215 270.002 326.478 238.634 325.198C207.266 323.919 190.251 321.215 190.251 321.215C190.251 321.215 189.355 325.786 188.269 332.875C188.398 332.181 188.473 331.799 188.473 331.799Z" fill="#773A0E"/>
<path d="M274.883 321.241C274.883 321.241 271.07 323.458 270.275 325.783C269.481 328.108 270.299 329.717 272.786 329.995C275.273 330.274 277.349 331.281 279.287 332.752C280.162 333.416 281.488 334.191 282.68 334.841C284.363 335.76 285.471 337.462 285.617 339.374L289.234 386.654L287.498 386.709C287.498 386.709 282.071 347.942 281.417 343.466C280.764 338.99 276.927 338.857 274.524 338.831C272.122 338.806 270.518 336.609 269.603 335.156C268.688 333.703 265.578 332.32 265.779 327.408C265.98 322.496 272.228 321.326 274.883 321.241Z" fill="#6C8475"/>
<path d="M274.883 321.241C274.883 321.241 269.612 323.498 268.817 325.823C268.022 328.148 270.299 329.717 272.786 329.995C275.273 330.274 277.349 331.281 279.287 332.752C280.162 333.416 281.488 334.191 282.68 334.841C284.363 335.76 285.471 337.462 285.617 339.374L289.234 386.654L287.498 386.709C287.498 386.709 282.552 347.177 281.898 342.701C281.244 338.225 276.927 338.857 274.524 338.831C272.122 338.806 270.518 336.609 269.603 335.156C268.688 333.703 265.578 332.32 265.779 327.408C265.98 322.496 272.228 321.326 274.883 321.241Z" fill="#DCEAE0"/>
<path d="M275.539 321.219C275.539 321.219 279.485 323.189 280.426 325.459C281.367 327.729 280.653 329.387 278.189 329.823C275.724 330.259 273.717 331.396 271.877 332.988C271.047 333.707 269.773 334.563 268.625 335.288C267.003 336.312 266.006 338.083 265.982 340.001L265.386 387.413L267.12 387.359C267.12 387.359 270.067 348.325 270.434 343.817C270.801 339.308 274.624 338.964 277.017 338.752C280.988 338.4 281.18 336.35 282 334.842C282.821 333.334 285.531 331.684 285.017 326.794C284.504 321.905 278.194 321.134 275.539 321.219Z" fill="#6C8475"/>
<path d="M275.539 321.219C275.539 321.219 280.873 323.037 281.815 325.306C282.756 327.576 280.653 329.387 278.189 329.823C275.724 330.259 273.717 331.396 271.877 332.988C271.047 333.707 269.773 334.563 268.625 335.288C267.003 336.312 266.006 338.083 265.982 340.001L265.386 387.413L267.12 387.359C267.12 387.359 269.525 347.749 269.892 343.241C270.259 338.732 274.621 338.931 277.017 338.752C279.413 338.573 280.873 336.278 281.694 334.77C282.514 333.262 285.531 331.684 285.017 326.794C284.504 321.905 278.194 321.134 275.539 321.219Z" fill="white"/>
<path d="M278.176 334.569C278.215 335.781 277.263 336.796 276.051 336.834C274.839 336.873 273.824 335.921 273.786 334.709C273.747 333.497 274.699 332.483 275.911 332.444C277.123 332.405 278.137 333.357 278.176 334.569Z" fill="#6C8475"/>
<path d="M302.47 349.449C302.47 349.449 301.945 332.286 301.819 328.179C301.696 324.159 301.13 321.553 305.848 319.313C310.566 317.073 312.944 315.215 313.992 313.682C315.04 312.149 316.857 309.213 316.857 309.213C316.857 309.213 318.828 311.301 317.478 313.574C316.127 315.847 316.074 318.08 314.951 319.819C313.827 321.557 311.503 325.157 309.199 326.729C306.894 328.301 307.235 330.156 307.305 332.466C307.376 334.777 307.779 347.949 307.779 347.949L302.47 349.449Z" fill="#6C8475"/>
<path d="M302.47 349.449C302.47 349.449 301.945 332.286 301.819 328.179C301.696 324.159 301.48 322.162 306.198 319.922C310.917 317.681 313.456 316.11 314.504 314.577C315.553 313.044 316.857 309.213 316.857 309.213C316.857 309.213 318.828 311.301 317.478 313.574C316.127 315.847 316.074 318.08 314.951 319.819C313.827 321.557 311.503 325.157 309.199 326.729C306.894 328.301 307.235 330.156 307.305 332.466C307.376 334.777 307.779 347.949 307.779 347.949L302.47 349.449Z" fill="#B1CEBE"/>
<path d="M317.686 329.673C316.568 327.598 312.447 322.856 310.978 321.237C309.508 319.619 305.205 315.532 306.571 315.113C307.938 314.694 308.355 313.731 309.059 311.56C309.763 309.388 312.054 310.008 313.294 309.442C314.535 308.877 314.37 308.801 315.679 307.828C315.056 307.36 312.506 306.221 307.532 308.077C302.559 309.933 299.357 314.007 299.41 318.387C299.463 322.766 303.706 326.206 308.242 331.26C312.778 336.314 312.164 337.469 312.164 337.469L312.506 348.655L317.897 348.49C317.897 348.49 317.811 340.379 318.315 338.295C318.819 336.21 318.804 331.748 317.686 329.673ZM313.46 333.413C312.532 332.265 304.898 324.06 304.239 322.417C303.58 320.774 305.699 319.736 305.699 319.736C305.699 319.736 305.638 321.725 307.392 322.037C307.044 322.615 307.252 324.11 308.943 323.977C308.627 324.555 309.303 326.157 311.206 326.058C310.986 326.795 311.603 328.399 312.852 328.117C312.433 329.022 313.291 330.538 314.945 330.244C314.727 331.062 315.137 332.55 316.27 332.434C316.216 333.329 314.388 334.561 313.46 333.413Z" fill="#6C8475"/>
<path d="M317.686 329.673C316.568 327.598 312.447 322.856 310.978 321.237C309.508 319.619 304.849 315.16 306.215 314.742C307.582 314.323 307.733 313.51 308.437 311.339C309.141 309.167 312.018 309.562 313.258 308.997C314.499 308.432 314.37 308.801 315.679 307.828C315.056 307.36 312.506 306.221 307.532 308.077C302.559 309.933 299.357 314.007 299.41 318.387C299.463 322.766 303.706 326.206 308.242 331.26C312.778 336.314 312.164 337.469 312.164 337.469L312.506 348.655L317.897 348.49C317.897 348.49 317.811 340.379 318.315 338.295C318.819 336.21 318.804 331.748 317.686 329.673ZM313.46 333.413C312.532 332.265 304.898 324.06 304.239 322.417C303.58 320.774 305.699 319.736 305.699 319.736C305.699 319.736 305.638 321.725 307.392 322.037C307.044 322.615 307.252 324.11 308.943 323.977C308.627 324.555 309.303 326.157 311.206 326.058C310.986 326.795 311.603 328.399 312.852 328.117C312.433 329.022 313.291 330.538 314.945 330.244C314.727 331.062 315.137 332.55 316.27 332.434C316.216 333.329 314.388 334.561 313.46 333.413Z" fill="#DCEAE0"/>
<path d="M307.606 324.178C306.968 325.01 305.775 325.168 304.943 324.53C304.111 323.891 303.955 322.699 304.593 321.867C305.232 321.036 306.424 320.878 307.256 321.516C308.087 322.154 308.244 323.346 307.606 324.178Z" fill="#6C8475"/>
<path d="M316.619 392.625C314.862 392.679 313.394 391.298 313.34 389.541L311.943 343.88L318.306 343.686L319.703 389.346C319.757 391.103 318.376 392.571 316.619 392.625Z" fill="#DD3900"/>
<path d="M306.457 392.936C304.7 392.99 303.232 391.609 303.178 389.852L301.781 344.191L308.144 343.997L309.541 389.657C309.595 391.414 308.214 392.882 306.457 392.936Z" fill="#DD3900"/>
<path d="M185.989 339.946L185.004 309.942L196.573 309.562L197.558 339.566L185.989 339.946Z" fill="#7F7F7F"/>
<path d="M186.528 339.928L185.544 309.942L196.574 309.58L197.558 339.566L186.528 339.928Z" fill="#7F7F7F"/>
<path d="M189.424 326.627L188.875 309.928L193.238 309.785L193.787 326.484L189.424 326.627Z" fill="#7F7F7F"/>
<path d="M189.467 328.261L193.801 328.237L193.825 332.563L189.491 332.587L189.467 328.261Z" fill="#7F7F7F"/>
<path d="M193.243 309.91L191.836 319.305C191.836 319.305 189.947 321.71 191.862 323.93L191.872 325.686C191.874 326.013 192.257 326.22 192.527 326.404C193.484 327.055 195.5 328.881 195.64 330.863C195.818 333.388 195.084 334.031 195.084 334.031L196.585 338.549L193.847 339.598C193.847 339.598 192.432 335.03 192.233 334.588C188.092 333.135 186.502 330.389 186.24 327.389C185.977 324.389 187.168 321.775 187.751 320.443C188.334 319.111 192.475 309.93 192.475 309.93L193.243 309.91Z" fill="#85A492"/>
<path d="M193.244 309.91L191.837 319.305C191.837 319.305 189.948 321.71 191.863 323.93L191.873 325.686C191.875 326.013 192.033 326.317 192.303 326.501C193.26 327.152 195.501 328.881 195.641 330.863C195.819 333.388 195.537 333.997 195.537 333.997L197.004 338.493L193.848 339.598C193.848 339.598 192.433 335.03 192.234 334.588C188.093 333.135 187.043 330.139 186.78 327.14C186.518 324.14 187.296 322.512 187.879 321.18C188.462 319.848 192.476 309.93 192.476 309.93L193.244 309.91Z" fill="#85A492"/>
<path d="M195.761 339.95C196.199 339.801 196.436 339.321 196.287 338.883L195.162 335.572C195.013 335.134 194.533 334.897 194.095 335.046C193.657 335.195 193.42 335.675 193.569 336.114L194.694 339.425C194.842 339.863 195.323 340.099 195.761 339.95Z" fill="#6C8475"/>
<path d="M193.244 309.909L191.836 319.305C191.836 319.305 189.948 321.71 191.863 323.93L191.873 325.686C191.875 326.013 192.033 326.317 192.303 326.501C193.26 327.152 195.501 328.88 195.641 330.862C195.819 333.387 195.085 334.031 195.085 334.031C195.085 334.031 193.821 335.096 192.234 334.588C188.093 333.135 187.042 330.139 186.779 327.14C186.517 324.14 187.295 322.512 187.878 321.18C188.461 319.848 192.476 309.93 192.476 309.93L193.244 309.909Z" fill="#DCEAE0"/>
<path d="M191.335 323.933L191.345 325.689C191.346 325.87 191.927 326.302 192.303 326.502C192.026 326.232 191.874 325.913 191.872 325.687L191.863 323.93C189.948 321.71 191.837 319.305 191.837 319.305L193.244 309.91L192.716 309.912L191.309 319.308C191.309 319.308 189.42 321.713 191.335 323.933Z" fill="#85A492"/>
<path d="M192.696 337.903C192.696 337.903 199.568 334.946 200.683 334.939C201.798 334.933 201.679 337.099 200.243 338.353C198.807 339.607 198.219 340.267 198.889 342.887C199.56 345.507 203.762 352.11 203.806 359.982C203.85 367.854 201.661 375.246 198.409 377.331C195.157 379.415 192.992 375.983 194.584 372.038C196.176 368.093 197.826 364.013 196.603 356.461C195.38 348.909 193.512 346.263 192.724 343.02C191.935 339.777 192.303 338.071 192.696 337.903Z" fill="#DD3900"/>
<path d="M198.89 342.887C198.219 340.267 198.806 339.607 200.242 338.353C198.806 339.607 196.505 341.588 197.175 344.209C197.846 346.829 201.43 351.336 201.474 359.208C201.517 367.08 198.856 375.196 195.604 377.281C195.465 377.37 195.343 377.435 195.218 377.505C196 378.107 197.115 378.16 198.409 377.331C201.661 375.246 203.85 367.854 203.807 359.982C203.763 352.11 199.561 345.507 198.89 342.887Z" fill="#AA2C00"/>
<path d="M197.021 343.294L208.252 314.3L186.163 305.744L174.932 334.738L197.021 343.294Z" fill="#7F7F7F"/>
<path d="M196.65 343.15L207.825 314.3L186.108 305.888L174.933 334.738L196.65 343.15Z" fill="#7F7F7F"/>
<path d="M196.616 328.179L202.591 312.754L192.922 309.009L186.947 324.434L196.616 328.179Z" fill="#7F7F7F"/>
<path d="M195.466 328.767L189.721 326.72L187.73 332.309L193.475 334.356L195.466 328.767Z" fill="#7F7F7F"/>
<path d="M196.772 310.692L195.088 319.858C195.088 319.858 196.076 322.752 193.535 324.215L192.946 325.869C192.836 326.177 192.405 326.246 192.089 326.33C190.971 326.628 188.466 327.685 187.679 329.509C186.676 331.833 187.156 332.684 187.156 332.684L184.246 336.452L186.483 338.346C186.483 338.346 189.328 334.503 189.662 334.151C194.051 334.148 196.46 332.082 197.699 329.337C198.938 326.592 198.678 323.732 198.568 322.282C198.458 320.833 197.49 310.966 197.49 310.966L196.772 310.692Z" fill="#85A492"/>
<path d="M196.772 310.692L195.088 319.858C195.088 319.858 196.076 322.752 193.535 324.215L192.946 325.869C192.836 326.177 192.586 326.412 192.27 326.496C191.152 326.794 188.466 327.685 187.679 329.509C186.676 331.833 186.742 332.501 186.742 332.501L183.869 336.261L186.484 338.346C186.484 338.346 189.329 334.503 189.663 334.151C194.052 334.148 196.033 331.668 197.272 328.924C198.511 326.179 198.314 324.385 198.204 322.936C198.094 321.486 197.49 310.966 197.49 310.966L196.772 310.692Z" fill="#85A492"/>
<path d="M184.562 338.046C184.198 337.761 184.132 337.229 184.417 336.865L186.573 334.111C186.858 333.747 187.39 333.683 187.754 333.968C188.119 334.254 188.183 334.785 187.898 335.15L185.743 337.903C185.458 338.268 184.926 338.331 184.562 338.046Z" fill="#6C8475"/>
<path d="M196.772 310.692L195.088 319.857C195.088 319.857 196.075 322.752 193.534 324.215L192.946 325.869C192.836 326.177 192.585 326.411 192.269 326.495C191.151 326.793 188.465 327.684 187.678 329.508C186.675 331.832 187.156 332.684 187.156 332.684C187.156 332.684 187.997 334.105 189.662 334.15C194.051 334.147 196.033 331.668 197.272 328.924C198.511 326.179 198.314 324.384 198.204 322.935C198.094 321.485 197.489 310.965 197.489 310.965L196.772 310.692Z" fill="white"/>
<path d="M194.031 324.391L193.441 326.045C193.381 326.215 192.69 326.431 192.269 326.496C192.619 326.332 192.868 326.082 192.944 325.868L193.535 324.214C196.076 322.752 195.088 319.857 195.088 319.857L196.772 310.691L197.269 310.869L195.583 320.035C195.583 320.035 196.572 322.929 194.031 324.391Z" fill="#85A492"/>
<path d="M189.575 329.68C189.177 330.798 189.76 332.027 190.878 332.425C191.995 332.823 193.224 332.24 193.623 331.123C194.021 330.005 193.438 328.776 192.32 328.377C191.202 327.979 189.973 328.562 189.575 329.68Z" fill="#6C8475"/>
<path d="M188.131 337.128C188.131 337.128 182.622 332.066 181.572 331.692C180.521 331.317 179.918 333.4 180.86 335.059C181.8 336.718 182.136 337.534 180.638 339.785C179.139 342.037 172.991 346.88 170.348 354.295C167.705 361.71 167.329 369.411 169.71 372.453C172.09 375.495 175.267 372.971 175.068 368.722C174.869 364.472 174.66 360.076 178.31 353.352C181.96 346.629 184.597 344.748 186.413 341.948C188.229 339.148 188.447 337.416 188.131 337.128Z" fill="#DD3900"/>
<path d="M180.638 339.785C182.137 337.533 181.8 336.717 180.859 335.059C181.8 336.717 183.318 339.347 181.82 341.599C180.321 343.85 175.448 346.919 172.806 354.335C170.163 361.75 169.992 370.29 172.373 373.332C172.474 373.462 172.568 373.565 172.663 373.672C171.727 373.981 170.656 373.663 169.709 372.453C167.328 369.411 167.705 361.71 170.347 354.295C172.99 346.879 179.139 342.036 180.638 339.785Z" fill="#AA2C00"/>
<path d="M252.335 375.903C252.335 375.903 251.295 374.755 251.102 372.939C250.909 371.124 250.633 338.22 251.331 335.743C252.03 333.266 253.165 331.467 253.165 331.467L241.563 331.757C241.563 331.757 243.185 333.684 243.839 336.226C244.493 338.767 245.674 370.812 245.69 372.878C245.705 374.943 245.111 375.348 244.543 375.849C243.974 376.35 252.335 375.903 252.335 375.903Z" fill="#DCEAE0"/>
<path d="M245.716 386.587L245.686 382.443L248.516 380.283L251.586 382.445L251.668 386.449C251.668 386.449 252.774 386.081 253.636 384.737C254.498 383.393 256.299 379.657 252.648 376.184C248.642 372.373 243.737 375.409 242.608 378.358C241.464 381.345 243.078 384.503 244.101 385.548C245.037 386.504 245.716 386.587 245.716 386.587Z" fill="#85A492"/>
<path d="M245.715 386.587L245.685 382.443L248.515 380.283L251.585 382.445L251.667 386.449C251.667 386.449 252.773 386.081 253.635 384.737C254.497 383.393 255.877 379.478 251.926 376.349C249.116 374.122 244.369 375.72 243.24 378.669C242.097 381.656 243.077 384.503 244.1 385.548C245.036 386.504 245.715 386.587 245.715 386.587Z" fill="white"/>
<path d="M250.179 321.361L250.212 325.955L247.076 328.347L243.672 325.952L243.581 321.514C243.581 321.514 242.355 321.922 241.4 323.412C240.445 324.902 238.449 329.042 242.496 332.892C246.936 337.115 252.373 333.749 253.624 330.481C254.891 327.17 253.102 323.672 251.969 322.514C250.931 321.454 250.179 321.361 250.179 321.361Z" fill="#85A492"/>
<path d="M250.179 321.361L250.212 325.955L247.076 328.347L243.673 325.952L243.582 321.514C243.582 321.514 242.356 321.922 241.401 323.412C240.446 324.902 238.917 329.24 243.295 332.708C246.41 335.175 251.671 333.405 252.922 330.137C254.189 326.826 253.102 323.672 251.969 322.514C250.931 321.454 250.179 321.361 250.179 321.361Z" fill="white"/>
<path d="M247.549 338.986C248.279 338.968 248.891 339.55 248.91 340.28L249.641 369.581C249.659 370.311 249.078 370.923 248.348 370.942C247.617 370.96 247.004 370.378 246.986 369.647L246.255 340.347C246.237 339.616 246.819 339.004 247.549 338.986Z" fill="#CEDDD2"/>
<path d="M255.682 371.548C255.682 371.548 250.179 372.573 248.321 372.585C246.266 372.599 240.168 371.548 240.168 371.548V343.881C240.168 343.881 245.547 344.9 247.364 344.917C249.46 344.937 255.682 343.881 255.682 343.881V371.548Z" fill="#773A0E"/>
<path d="M224.243 348.548C225.011 348.595 225.6 349.262 225.553 350.03L223.779 377.527C223.732 378.295 220.94 378.123 220.987 377.355L222.76 349.858C222.807 349.09 223.475 348.501 224.243 348.548Z" fill="#B1CEBE"/>
<path d="M220.405 339.678L221.353 324.291C221.41 323.367 222.205 322.663 223.13 322.72L228.314 323.039C229.238 323.096 229.941 323.892 229.884 324.816L228.936 340.204L220.405 339.678Z" fill="#DD3900"/>
<path d="M219.773 349.931L219.501 354.352C219.444 355.276 220.147 356.072 221.071 356.128L226.255 356.448C227.179 356.505 227.974 355.802 228.031 354.878L228.304 350.457L219.773 349.931Z" fill="#DD3900"/>
<path d="M228.936 340.204C228.936 340.204 226.117 345.595 228.304 350.456C228.304 350.456 224.502 351.226 219.774 349.931C220.459 348.969 222.379 344.79 220.405 339.678C221.449 338.508 228.353 338.983 228.936 340.204Z" fill="#AA2C00"/>
<path d="M225.783 323.546C226.337 323.58 226.762 324.061 226.728 324.615L225.936 337.464C225.902 338.018 225.421 338.444 224.867 338.41C224.313 338.376 223.888 337.895 223.922 337.341L224.714 324.492C224.748 323.938 225.229 323.512 225.783 323.546Z" fill="#AA2C00"/>
<path d="M229.074 324.371C229.425 324.393 229.695 324.698 229.674 325.049L228.859 338.273C228.837 338.625 228.532 338.895 228.181 338.873C227.829 338.851 227.559 338.546 227.581 338.195L228.396 324.971C228.417 324.619 228.723 324.349 229.074 324.371Z" fill="#AA2C00"/>
<path d="M222.348 323.956C222.699 323.978 222.969 324.283 222.948 324.634L222.133 337.858C222.111 338.21 221.806 338.48 221.454 338.458C221.103 338.436 220.833 338.131 220.855 337.78L221.67 324.556C221.691 324.204 221.996 323.934 222.348 323.956Z" fill="#AA2C00"/>
<path d="M224.113 350.646C224.667 350.68 225.092 351.161 225.058 351.715L224.834 355.349C224.8 355.903 224.319 356.328 223.765 356.294C223.211 356.26 222.786 355.779 222.82 355.225L223.044 351.591C223.078 351.037 223.559 350.612 224.113 350.646Z" fill="#AA2C00"/>
<path d="M227.403 350.607C227.754 350.629 228.024 350.934 228.003 351.285L227.741 355.533C227.719 355.884 227.413 356.154 227.062 356.132C226.71 356.111 226.44 355.806 226.462 355.455L226.724 351.207C226.745 350.855 227.051 350.585 227.403 350.607Z" fill="#AA2C00"/>
<path d="M220.677 350.193C221.028 350.215 221.298 350.52 221.277 350.871L221.015 355.119C220.993 355.47 220.687 355.74 220.336 355.718C219.984 355.697 219.714 355.392 219.736 355.041L219.998 350.793C220.019 350.441 220.325 350.171 220.677 350.193Z" fill="#AA2C00"/>
<path d="M223.78 377.527L220.988 377.355C220.988 377.355 220.212 379.21 219.885 380.864C219.557 382.517 220.122 385.523 220.122 385.523L223.618 385.463C223.618 385.463 224.507 383.522 224.559 381.828C224.608 380.241 223.78 377.527 223.78 377.527Z" fill="white"/>
<path d="M232.015 371.814C232.015 371.814 225.665 372.66 223.532 372.603C221.174 372.54 214.21 371.234 214.21 371.234L215.135 342.844C215.135 342.844 221.274 344.091 223.359 344.177C225.763 344.276 232.94 343.424 232.94 343.424L232.015 371.814Z" fill="#773A0E"/>
<path d="M207.116 369.657C207.116 369.657 202.253 371.118 198.033 370.679C192.629 370.116 188.948 367.938 188.948 367.938V340.27C188.948 340.27 192.252 342.101 197.357 342.498C201.581 342.827 207.116 341.989 207.116 341.989V369.657Z" fill="#773A0E"/>
<path d="M295.914 367.898C295.914 367.898 300.032 369.046 303.518 368.447C307.984 367.68 310.935 365.479 310.935 365.479L309.544 339.621C309.544 339.621 306.888 341.479 302.664 342.079C299.167 342.575 294.523 342.039 294.523 342.039L295.914 367.898Z" fill="#773A0E"/>
<path d="M291.82 370.227C291.82 370.227 281.8 371.846 278.316 372.041C274.482 372.256 262.716 371.704 262.716 371.704L261.314 344.072C261.314 344.072 272.819 344.627 276.567 344.427C280.138 344.236 290.418 342.595 290.418 342.595L291.82 370.227Z" fill="#773A0E"/>
<path d="M224.543 119.753C224.543 119.753 223.394 115.736 219 115.198C214.605 114.66 215.883 120.921 217.023 125.578C218.162 130.235 219.899 132.831 222.046 133.088C224.193 133.346 225.689 130.014 225.689 130.014L224.543 119.753Z" fill="#F7A169"/>
<path d="M273.312 120.392C273.312 120.392 274.564 116.406 278.971 115.984C283.379 115.562 281.937 121.786 280.675 126.412C279.415 131.038 277.609 133.588 275.456 133.788C273.303 133.989 271.895 130.62 271.895 130.62L273.312 120.392Z" fill="#F7A169"/>
<path d="M222.707 127.56C222.707 127.56 221.229 125.668 221.591 123.192C221.954 120.715 221.237 117.916 219.726 117.43C218.215 116.944 216.896 119.084 217.417 122.53C217.937 125.975 218.61 127.728 219.662 128.551C218.704 126.544 218.177 124.647 218.316 122.412C218.456 120.175 219.341 119.262 220.001 119.97C220.66 120.676 219.716 121.852 219.645 123.449C219.574 125.046 219.783 126.065 220.476 127.061C221.169 128.057 222.471 127.675 222.707 127.56Z" fill="#E1874A"/>
<path d="M275.09 128.246C275.09 128.246 276.616 126.394 276.319 123.909C276.021 121.424 276.811 118.644 278.334 118.198C279.857 117.752 281.119 119.925 280.508 123.357C279.898 126.787 279.18 128.522 278.106 129.317C279.116 127.336 279.693 125.453 279.612 123.215C279.532 120.976 278.671 120.039 277.993 120.73C277.315 121.419 278.228 122.619 278.257 124.217C278.286 125.816 278.052 126.829 277.333 127.807C276.614 128.783 275.323 128.367 275.09 128.246Z" fill="#E1874A"/>
<path d="M222.103 103.354C222.103 103.354 222.971 132.791 224.862 138.725C226.755 144.66 236.668 153.481 243.317 156.314C249.966 159.148 254.766 157.301 258.382 154.721C261.998 152.143 269.005 145.989 272.321 138.869C275.639 131.749 275.846 97.6105 275.846 97.6105C275.846 97.6105 272.985 88.2611 256.527 86.8513C240.068 85.4415 221.616 92.3613 222.103 103.354Z" fill="#FAAE7A"/>
<path d="M275.847 97.6115C275.847 97.6115 272.985 88.2611 256.527 86.8513C240.068 85.4415 221.615 92.3623 222.101 103.355C222.101 103.355 222.97 132.79 224.862 138.725C226.024 142.368 230.21 147.099 234.807 150.864C228.501 138.627 224.12 114.205 235.601 110.206C247.398 106.097 265.127 106.177 275.304 116.031C275.792 106.426 275.847 97.6115 275.847 97.6115Z" fill="#F7A169"/>
<path d="M222.79 131.336C222.79 131.336 222.708 137.578 223.877 139.995C225.046 142.412 232.995 152.681 238.635 156.037C244.273 159.392 255.162 159.055 259.441 156.309C263.719 153.563 271.446 144.126 272.441 141.505C273.436 138.883 273.824 136.379 274.09 133.781C274.356 131.182 274.189 126.273 274.189 126.273L272.848 126.843C272.848 126.843 271.868 132.379 267.791 134.087C263.712 135.795 259.72 135.048 251.878 134.839C244.038 134.63 242.983 133.709 236.564 134.852C230.146 135.995 224.116 138.635 223.996 126.094C222.928 129.542 222.79 131.336 222.79 131.336Z" fill="#1E0E02"/>
<path d="M263.979 90.9744C263.979 90.9744 261.323 98.4642 249.014 97.0228C236.705 95.5803 231.972 102.402 231.465 104.476C229.766 99.8118 231.578 95.8332 231.578 95.8332C226.52 103.13 226.316 106.49 228.338 110.999C230.36 115.508 223.984 119.506 223.814 120.305C223.643 121.102 224.309 131.355 224.309 131.355L222.789 131.335C222.789 131.335 224.324 117.989 218.998 115.198C217.509 106.614 215.512 94.1815 216.88 87.5558C218.248 80.9302 227.755 76.1724 230.776 77.7331C236.793 52.1988 266.47 71.8784 267.425 78.3744C268.381 84.8695 263.979 90.9744 263.979 90.9744Z" fill="#1E0E02"/>
<path d="M264.446 79.7755C264.446 79.7755 272.215 76.9971 277.393 89.231C282.571 101.465 278.972 115.984 278.972 115.984C278.972 115.984 276.522 116.113 275.526 122.45C274.53 128.787 274.09 133.782 274.09 133.782L271.859 133.5C271.859 133.5 273.095 124.245 273.452 121.468C273.808 118.692 268.425 119.019 269.371 113.137C271.085 102.487 268.374 93.5402 262.467 92.3427C258.019 89.7232 264.446 79.7755 264.446 79.7755Z" fill="#1E0E02"/>
<path d="M280.714 83.524C276.211 71.441 262.986 64.7891 256.204 64.7002L249.973 64.6185L248.716 64.6021L242.483 64.5204C235.701 64.4315 222.307 70.7345 217.489 82.6954C213.285 93.1332 215.121 108.32 215.121 108.32C215.121 108.32 225.118 102.802 248.841 103.013C272.561 103.424 282.41 109.201 282.41 109.201C282.41 109.201 284.644 94.0684 280.714 83.524Z" fill="#F9A71B"/>
<path d="M229.87 92.0294C236.054 90.4903 234.796 82.4282 230.08 75.8028C228.242 73.2195 228.128 71.0998 228.67 69.4708C224.088 72.524 219.8 76.9562 217.489 82.6954C215.406 87.8665 214.807 94.2022 214.731 99.2807C217.652 95.3806 224.361 93.3994 229.87 92.0294Z" fill="#FFC021"/>
<path d="M280.714 83.524C278.545 77.7011 274.349 73.1447 269.825 69.9701C270.34 71.618 270.182 73.7491 268.261 76.3032C263.373 82.8027 261.905 90.8291 268.047 92.5298C273.549 94.053 280.246 96.224 283.036 100.244C283.097 95.1542 282.67 88.7711 280.714 83.524Z" fill="#FFC021"/>
<path d="M261.217 63.8878C260.451 62.8457 252.472 62.8661 249.375 62.9145C246.281 62.785 238.308 62.5555 237.514 63.5772L236.63 65.5638C236.63 65.5638 241.212 73.7245 243.204 86.6087C243.83 92.8405 244.193 92.7412 245.072 92.9077C245.646 93.0173 247.653 93.0136 248.981 92.997C250.307 93.0484 252.314 93.1047 252.891 93.0102C253.774 92.8668 254.135 92.9755 254.926 86.7623C257.254 73.9347 262.048 65.8969 262.048 65.8969L261.217 63.8878Z" fill="#FF9B0A"/>
<path d="M252.517 61.9597L252.409 61.9582L246.35 61.8788L246.242 61.8774C243.651 61.8435 238.513 62.3472 237.513 63.5782C239.062 64.9416 244.909 71.7608 244.533 87.2262C244.514 87.993 245.233 88.5765 246 88.5865L252.059 88.6659C252.825 88.676 253.574 88.1108 253.561 87.3445C253.304 71.8708 259.614 65.2109 261.199 63.8886C260.23 62.6318 255.107 61.9936 252.517 61.9597Z" fill="#FFC021"/>
<path d="M215.121 108.321C215.121 108.321 221.35 98.6624 242.056 97.1716C262.763 95.6808 276.322 101.344 282.411 109.202C278.322 110.604 273.073 107.776 259.611 106.766C246.148 105.758 238.368 106.277 229.64 107.822C220.912 109.366 215.121 108.321 215.121 108.321Z" fill="#EA8000"/>
<path d="M215.121 108.321C215.121 108.321 221.35 98.6624 242.056 97.1716C262.763 95.6808 276.322 101.344 282.411 109.202C278.322 110.604 273.095 106.065 259.633 105.056C246.17 104.047 238.39 104.566 229.662 106.111C220.934 107.655 215.121 108.321 215.121 108.321Z" fill="#FFC021"/>
<path d="M254.266 113.303C252.518 115.014 251.13 117.393 250.76 118.131C250.391 118.869 250.689 120.826 251.411 124.164C252.132 127.502 254.094 131.675 253.426 132.319C252.757 132.962 250.572 133.788 247.716 134.073C246.653 134.178 245.833 134.076 245.218 133.904C242.895 132.992 244.9 129.67 244.9 129.67C241.839 132.903 244.886 134.648 244.886 134.648C245.821 135.282 247.633 135.957 249.71 135.786C253.215 135.497 255.835 134.588 255.081 132.179C254.328 129.769 251.313 120.787 251.722 118.843C252.133 116.897 254.266 113.303 254.266 113.303Z" fill="#EA9357"/>
<path d="M255.113 122.283C255.113 122.283 252.909 121.632 252.727 119.231C252.546 116.83 256.774 112.37 262.149 114.198C267.523 116.027 267.73 121.44 265.328 122.285C262.928 123.129 255.113 122.283 255.113 122.283Z" fill="#F7A269"/>
<path d="M255.112 122.283C255.112 122.283 261.681 127.736 265.327 122.284C261.128 121.843 255.112 122.283 255.112 122.283Z" fill="#F7A269"/>
<path d="M255.112 122.284C255.112 122.284 256.505 118.064 260.513 118.614C264.521 119.163 265.327 122.285 265.327 122.285C265.327 122.285 263.668 123.569 260.174 123.137C256.682 122.705 255.112 122.284 255.112 122.284Z" fill="white"/>
<path d="M258.687 119.951C258.294 121.198 258.985 122.527 260.231 122.922C261.477 123.315 262.806 122.624 263.201 121.377C263.594 120.132 262.903 118.802 261.657 118.408C260.41 118.014 259.081 118.704 258.687 119.951Z" fill="#512507"/>
<path d="M259.682 120.265C259.462 120.962 259.848 121.706 260.546 121.926C261.242 122.146 261.986 121.76 262.207 121.063C262.427 120.366 262.039 119.623 261.342 119.402C260.645 119.182 259.902 119.567 259.682 120.265Z" fill="#1E0E02"/>
<path d="M260.584 119.824C260.489 120.124 260.654 120.445 260.955 120.539C261.256 120.635 261.577 120.468 261.672 120.168C261.766 119.867 261.6 119.547 261.299 119.451C260.999 119.357 260.678 119.523 260.584 119.824Z" fill="white"/>
<path d="M255.112 122.284C255.112 122.284 255.722 119.076 258.737 118.231C261.752 117.387 264.991 119.191 265.327 122.285C264.057 119.972 262.13 118.793 259.946 118.825C257.763 118.857 256.449 119.801 255.112 122.284Z" fill="#FFAF78"/>
<path d="M253.993 113.015C253.977 113.288 254.049 115.679 257.339 115.743C260.629 115.808 265.525 115.892 267.34 117.231C264.944 113.829 261.729 112.815 258.49 112.905C255.253 112.997 253.993 113.015 253.993 113.015Z" fill="#1E0E02"/>
<path d="M242.043 122.075C242.043 122.075 244.265 121.494 244.523 119.1C244.782 116.707 240.697 112.114 235.267 113.769C229.837 115.426 229.46 120.83 231.833 121.751C234.205 122.671 242.043 122.075 242.043 122.075Z" fill="#F7A269"/>
<path d="M242.043 122.075C242.043 122.075 235.303 127.315 231.833 121.75C236.044 121.443 242.043 122.075 242.043 122.075Z" fill="#F7A269"/>
<path d="M242.043 122.076C242.043 122.076 240.786 117.813 236.761 118.235C232.738 118.656 231.833 121.751 231.833 121.751C231.833 121.751 233.45 123.087 236.956 122.767C240.461 122.446 242.043 122.076 242.043 122.076Z" fill="white"/>
<path d="M239.431 119.608C239.785 120.867 239.051 122.174 237.794 122.528C236.535 122.881 235.229 122.148 234.875 120.89C234.522 119.632 235.255 118.325 236.512 117.972C237.771 117.617 239.078 118.35 239.431 119.608Z" fill="#512507"/>
<path d="M238.428 119.89C238.626 120.594 238.215 121.325 237.511 121.523C236.808 121.721 236.076 121.311 235.878 120.608C235.68 119.904 236.092 119.173 236.795 118.975C237.499 118.777 238.23 119.186 238.428 119.89Z" fill="#1E0E02"/>
<path d="M237.541 119.42C237.626 119.724 237.45 120.039 237.146 120.124C236.843 120.21 236.527 120.033 236.442 119.73C236.357 119.426 236.533 119.111 236.837 119.025C237.14 118.94 237.456 119.117 237.541 119.42Z" fill="white"/>
<path d="M242.043 122.076C242.043 122.076 241.535 118.85 238.549 117.909C235.562 116.97 232.268 118.669 231.833 121.751C233.176 119.479 235.14 118.362 237.322 118.464C239.502 118.566 240.786 119.551 242.043 122.076Z" fill="#FFAF78"/>
<path d="M243.547 112.849C243.555 113.122 243.407 115.509 240.116 115.468C236.825 115.428 231.93 115.356 230.073 116.636C232.576 113.313 235.822 112.402 239.056 112.595C242.289 112.79 243.547 112.849 243.547 112.849Z" fill="#1E0E02"/>
<path d="M243.064 140.282C243.064 140.282 250.344 141.576 256.131 140.49C252.839 145.41 246.806 147.199 243.064 140.282Z" fill="white"/>
<path d="M254.3 142.399C248.558 143.559 244.095 141.826 244.024 141.798C244.184 142.014 244.345 142.22 244.51 142.411C247.671 143.412 250.674 143.519 254.3 142.399Z" fill="#E5DFDA"/>
<path d="M286.761 234.088C286.761 234.088 293.156 237.34 294.61 249.971C299.594 249.01 303.964 249.161 303.964 249.161L305.725 240.697L304.987 232.262C304.987 232.262 297.342 230.594 286.761 234.088Z" fill="#C8F4DF"/>
<path d="M323.362 279.067C323.362 279.067 328.497 247.188 327.138 220.999C325.78 194.809 321.062 183.186 316.259 181.462C311.456 179.738 298.305 202.557 296.55 221.973C294.794 241.389 293.403 257.946 293.403 257.946C293.403 257.946 313.369 286.013 312.871 291.706C318.417 290.888 322.896 282.186 323.362 279.067Z" fill="#2B89BE"/>
<path d="M299.223 259.976L293.404 257.946C293.404 257.946 220.617 241.844 204.325 239.081C203.426 238.929 202.255 238.9 202.255 238.9L190.643 256.252C190.643 256.252 210.603 254.324 229.47 268.88C248.336 283.435 266.884 289.899 281.672 292.952C296.461 296.006 309.06 293.508 312.872 291.706C316.683 289.903 299.223 259.976 299.223 259.976Z" fill="#FAAE7A"/>
<path d="M299.223 259.976L293.404 257.946C293.404 257.946 292.766 257.805 291.595 257.547C302.432 266.568 303.482 281.822 298.514 294.328C305.419 294.046 310.646 292.758 312.872 291.706C316.683 289.903 299.223 259.976 299.223 259.976Z" fill="#F7A169"/>
<path d="M268.164 268.07C274.23 262.411 282.328 258.58 290.931 257.401C278.07 254.565 218.825 241.54 204.325 239.082C203.426 238.929 202.254 238.901 202.254 238.901L190.643 256.253C190.643 256.253 210.602 254.324 229.469 268.879C239.922 276.943 250.276 282.521 259.948 286.414C259.976 279.582 263.054 272.791 268.164 268.07Z" fill="#F7A169"/>
<path d="M215.588 241.099C215.588 241.099 206.549 251.844 204.553 261.34C198.199 259.386 180.128 258.182 180.128 258.182C180.128 258.182 182.056 244.077 184.881 239.796C187.705 235.514 202.582 236.981 215.588 241.099Z" fill="#C8F4DF"/>
<path d="M289.215 256.644C289.215 256.644 288.638 251.919 294.135 249.37C299.632 246.821 327.832 257.445 330.621 268.175C333.41 278.906 327.79 279.229 326.226 283.112C324.663 286.995 319.583 297.242 309.476 292.847C309.113 278.494 304.554 263.071 289.215 256.644Z" fill="#5EBEEA"/>
<path d="M289.215 256.644C289.215 256.644 288.638 251.919 294.135 249.37C299.632 246.821 326.854 258.792 329.644 269.523C332.433 280.253 327.789 279.229 326.225 283.112C324.662 286.995 319.583 297.242 309.476 292.847C309.113 278.494 304.554 263.071 289.215 256.644Z" fill="#3D9ACE"/>
<path d="M294.463 255.898C294.463 255.898 306.726 257.798 314.596 270.967C322.465 284.136 325.914 281.865 325.905 275.77C325.897 269.674 309.663 255.546 294.463 255.898Z" fill="#2B89BE"/>
<path d="M303.326 262.959C303.326 262.959 310.49 273.947 311.611 283.187C312.733 292.427 317.043 288.437 317.251 284.899C317.459 281.363 311.966 268.692 303.326 262.959Z" fill="#2B89BE"/>
<path d="M176.641 279.129C176.641 279.129 171.505 247.251 172.864 221.061C174.223 194.871 180.975 182.528 183.745 181.525C188.542 179.787 201.697 202.619 203.452 222.035C205.208 241.451 206.6 258.009 206.6 258.009C206.6 258.009 186.634 286.076 187.132 291.768C181.585 290.95 177.107 282.248 176.641 279.129Z" fill="#2B89BE"/>
<path d="M200.781 260.039L206.6 258.009C206.6 258.009 278.127 236.207 284.294 234.634C289.083 233.413 289.752 233.24 289.752 233.24L296.238 249.296C296.238 249.296 285.503 251.746 266.636 266.302C247.771 280.857 233.119 289.961 218.331 293.015C203.542 296.068 190.944 293.571 187.133 291.768C183.321 289.965 200.781 260.039 200.781 260.039Z" fill="#FAAE7A"/>
<path d="M210.689 256.763C208.106 257.549 206.6 258.009 206.6 258.009L200.781 260.039C200.781 260.039 183.321 289.965 187.133 291.768C189.244 292.766 194.053 293.976 200.432 294.34C198.62 280.716 199.48 265.905 210.689 256.763Z" fill="#F7A169"/>
<path d="M210.788 256.707C210.788 256.707 211.365 251.981 205.868 249.432C200.371 246.883 172.172 257.507 169.382 268.237C166.593 278.968 172.214 279.292 173.777 283.174C175.34 287.058 180.421 297.304 190.527 292.909C190.891 278.556 195.45 263.133 210.788 256.707Z" fill="#5EBEEA"/>
<path d="M210.788 256.707C210.788 256.707 211.906 253.922 206.408 251.373C200.911 248.824 172.172 257.507 169.382 268.237C166.593 278.968 172.214 279.292 173.777 283.174C175.34 287.058 180.421 297.304 190.527 292.909C190.891 278.556 195.45 263.133 210.788 256.707Z" fill="#3D9ACE"/>
<path d="M205.01 256.007C205.01 256.007 192.747 257.907 184.878 271.076C177.009 284.245 173.559 281.974 173.568 275.879C173.576 269.783 189.811 255.655 205.01 256.007Z" fill="#2B89BE"/>
<path d="M196.148 263.068C196.148 263.068 188.983 274.056 187.861 283.296C186.74 292.536 182.43 288.546 182.222 285.008C182.014 281.472 187.507 268.801 196.148 263.068Z" fill="#2B89BE"/>
</g>
</g>
<defs>
<clipPath id="clip0_1_6">
<rect width="500" height="433" fill="white"/>
</clipPath>
</defs>
</svg>
