<svg width="41" height="41" viewBox="0 0 41 41" fill="none" xmlns="http://www.w3.org/2000/svg">
<path d="M29.9839 29.1931C29.5535 27.8687 28.3118 26.8919 26.8384 26.8919H25.1828V21.9253C25.1828 21.4862 25.0084 21.0651 24.6979 20.7547C24.3875 20.4442 23.9664 20.2698 23.5273 20.2698H13.5941V16.9587H16.9051C17.3442 16.9587 17.7653 16.7843 18.0758 16.4738C18.3863 16.1633 18.5607 15.7422 18.5607 15.3031V11.9921H21.8718C22.7499 11.9921 23.5921 11.6432 24.213 11.0223C24.834 10.4013 25.1828 9.55914 25.1828 8.68099V8.00222C27.1637 8.80079 28.9215 10.0675 30.3058 11.6938C31.6901 13.3201 32.6597 15.2577 33.1317 17.3406C33.6036 19.4236 33.5637 21.5898 33.0155 23.654C32.4673 25.7182 31.4271 27.6188 29.9839 29.1931ZM18.5607 33.3982C12.0213 32.587 6.9719 27.0244 6.9719 20.2698C6.9719 19.2433 7.10435 18.25 7.31957 17.3063L15.2496 25.2364V26.8919C15.2496 27.7701 15.5984 28.6123 16.2194 29.2332C16.8403 29.8542 17.6825 30.203 18.5607 30.203M20.2162 3.71437C18.0421 3.71437 15.8893 4.14259 13.8807 4.97457C11.8722 5.80656 10.0471 7.02602 8.50979 8.56333C5.40505 11.6681 3.66082 15.879 3.66082 20.2698C3.66082 24.6605 5.40505 28.8715 8.50979 31.9762C10.0471 33.5135 11.8722 34.733 13.8807 35.565C15.8893 36.3969 18.0421 36.8252 20.2162 36.8252C24.607 36.8252 28.8179 35.0809 31.9227 31.9762C35.0274 28.8715 36.7716 24.6605 36.7716 20.2698C36.7716 18.0957 36.3434 15.9429 35.5114 13.9343C34.6794 11.9257 33.46 10.1006 31.9227 8.56333C30.3853 7.02602 28.5603 5.80656 26.5517 4.97457C24.5431 4.14259 22.3903 3.71437 20.2162 3.71437Z" fill="white"/>
</svg>
