<svg width="27" height="27" viewBox="0 0 27 27" fill="none" xmlns="http://www.w3.org/2000/svg">
<path fill-rule="evenodd" clip-rule="evenodd" d="M15.8418 2.64159C16.6011 1.8823 17.673 1.57495 18.9002 1.57495H21.1002C22.3274 1.57495 23.3993 1.8823 24.1586 2.64159C24.9178 3.40087 25.2252 4.47278 25.2252 5.69995V7.89995C25.2252 9.12712 24.9178 10.199 24.1586 10.9583C23.3993 11.7176 22.3274 12.025 21.1002 12.025H18.9002C17.673 12.025 16.6011 11.7176 15.8418 10.9583C15.0825 10.199 14.7752 9.12712 14.7752 7.89995V5.69995C14.7752 4.47278 15.0825 3.40087 15.8418 2.64159ZM17.0086 3.80831C16.6678 4.14903 16.4252 4.72712 16.4252 5.69995V7.89995C16.4252 8.87278 16.6678 9.45087 17.0086 9.79159C17.3493 10.1323 17.9274 10.375 18.9002 10.375H21.1002C22.073 10.375 22.6511 10.1323 22.9918 9.79159C23.3325 9.45087 23.5752 8.87278 23.5752 7.89995V5.69995C23.5752 4.72712 23.3325 4.14903 22.9918 3.80831C22.6511 3.4676 22.073 3.22495 21.1002 3.22495H18.9002C17.9274 3.22495 17.3493 3.4676 17.0086 3.80831Z" fill="#19A64C"/>
<path fill-rule="evenodd" clip-rule="evenodd" d="M2.64183 15.8416C3.40112 15.0823 4.47303 14.775 5.7002 14.775H7.9002C9.12737 14.775 10.1993 15.0823 10.9586 15.8416C11.7178 16.6009 12.0252 17.6728 12.0252 18.9V21.1C12.0252 22.3271 11.7178 23.399 10.9586 24.1583C10.1993 24.9176 9.12737 25.225 7.9002 25.225H5.7002C4.47303 25.225 3.40112 24.9176 2.64183 24.1583C1.88255 23.399 1.5752 22.3271 1.5752 21.1V18.9C1.5752 17.6728 1.88255 16.6009 2.64183 15.8416ZM3.80856 17.0083C3.46784 17.349 3.2252 17.9271 3.2252 18.9V21.1C3.2252 22.0728 3.46784 22.6509 3.80856 22.9916C4.14927 23.3323 4.72736 23.575 5.7002 23.575H7.9002C8.87303 23.575 9.45112 23.3323 9.79183 22.9916C10.1325 22.6509 10.3752 22.0728 10.3752 21.1V18.9C10.3752 17.9271 10.1325 17.349 9.79183 17.0083C9.45112 16.6676 8.87303 16.425 7.9002 16.425H5.7002C4.72736 16.425 4.14927 16.6676 3.80856 17.0083Z" fill="#19A64C"/>
<path fill-rule="evenodd" clip-rule="evenodd" d="M6.8002 3.22495C4.82578 3.22495 3.2252 4.82553 3.2252 6.79995C3.2252 8.77437 4.82578 10.375 6.8002 10.375C8.77461 10.375 10.3752 8.77437 10.3752 6.79995C10.3752 4.82553 8.77461 3.22495 6.8002 3.22495ZM1.5752 6.79995C1.5752 3.91426 3.91451 1.57495 6.8002 1.57495C9.68588 1.57495 12.0252 3.91426 12.0252 6.79995C12.0252 9.68564 9.68588 12.025 6.8002 12.025C3.91451 12.025 1.5752 9.68564 1.5752 6.79995Z" fill="#19A64C"/>
<path fill-rule="evenodd" clip-rule="evenodd" d="M20.0002 16.425C18.0258 16.425 16.4252 18.0255 16.4252 20C16.4252 21.9744 18.0258 23.575 20.0002 23.575C21.9746 23.575 23.5752 21.9744 23.5752 20C23.5752 18.0255 21.9746 16.425 20.0002 16.425ZM14.7752 20C14.7752 17.1143 17.1145 14.775 20.0002 14.775C22.8859 14.775 25.2252 17.1143 25.2252 20C25.2252 22.8856 22.8859 25.225 20.0002 25.225C17.1145 25.225 14.7752 22.8856 14.7752 20Z" fill="#19A64C"/>
</svg>
