<svg width="42" height="42" viewBox="0 0 42 42" fill="none" xmlns="http://www.w3.org/2000/svg">
<rect x="0.400391" y="0.400024" width="40.8" height="40.8" rx="20.4" fill="#19A64C"/>
<path fill-rule="evenodd" clip-rule="evenodd" d="M20.8004 10C21.4631 10 22.0004 10.5373 22.0004 11.2V19.6H30.4004C31.0631 19.6 31.6004 20.1373 31.6004 20.8C31.6004 21.4628 31.0631 22 30.4004 22H22.0004V30.4C22.0004 31.0628 21.4631 31.6 20.8004 31.6C20.1376 31.6 19.6004 31.0628 19.6004 30.4V22H11.2004C10.5376 22 10.0004 21.4628 10.0004 20.8C10.0004 20.1373 10.5376 19.6 11.2004 19.6H19.6004V11.2C19.6004 10.5373 20.1376 10 20.8004 10Z" fill="white"/>
</svg>
