<svg width="27" height="27" viewBox="0 0 27 27" fill="none" xmlns="http://www.w3.org/2000/svg">
<path fill-rule="evenodd" clip-rule="evenodd" d="M5.44683 5.24664C6.66725 4.02622 8.47883 3.575 10.7602 3.575H16.0402C18.3216 3.575 20.1331 4.02622 21.3536 5.24664C22.574 6.46705 23.0252 8.27863 23.0252 10.56C23.0252 11.0156 22.6558 11.385 22.2002 11.385C21.7446 11.385 21.3752 11.0156 21.3752 10.56C21.3752 8.44137 20.9464 7.17295 20.1868 6.41336C19.4272 5.65378 18.1588 5.225 16.0402 5.225H10.7602C8.64156 5.225 7.37314 5.65378 6.61356 6.41336C5.85397 7.17295 5.42519 8.44137 5.42519 10.56V15.84C5.42519 17.9586 5.85397 19.2271 6.61356 19.9866C7.37314 20.7462 8.64156 21.175 10.7602 21.175C11.2158 21.175 11.5852 21.5444 11.5852 22C11.5852 22.4556 11.2158 22.825 10.7602 22.825C8.47883 22.825 6.66725 22.3738 5.44683 21.1534C4.22642 19.9329 3.77519 18.1214 3.77519 15.84V10.56C3.77519 8.27863 4.22642 6.46705 5.44683 5.24664Z" fill="#F1F1F1"/>
<path fill-rule="evenodd" clip-rule="evenodd" d="M8.21058 8.01039C9.05975 7.16122 10.2938 6.875 11.7502 6.875H15.0502C16.6563 6.875 17.993 7.22008 18.8339 8.2903C19.1154 8.64857 19.0532 9.16721 18.6949 9.44871C18.3366 9.73021 17.818 9.66798 17.5365 9.3097C17.1674 8.83992 16.4801 8.525 15.0502 8.525H11.7502C10.4566 8.525 9.76564 8.78878 9.37731 9.17711C8.98897 9.56545 8.72519 10.2564 8.72519 11.55V14.85C8.72519 16.2801 9.0403 16.9707 9.50343 17.3399C9.85972 17.6239 9.91833 18.1429 9.63432 18.4992C9.35032 18.8555 8.83126 18.9141 8.47496 18.6301C7.42009 17.7893 7.07519 16.4559 7.07519 14.85V11.55C7.07519 10.0936 7.36142 8.85955 8.21058 8.01039Z" fill="#F1F1F1"/>
<path fill-rule="evenodd" clip-rule="evenodd" d="M9.0112 1.375C9.46683 1.375 9.8362 1.74437 9.8362 2.2V4.4C9.8362 4.85564 9.46683 5.225 9.0112 5.225C8.55556 5.225 8.1862 4.85564 8.1862 4.4V2.2C8.1862 1.74437 8.55556 1.375 9.0112 1.375Z" fill="#F1F1F1"/>
<path fill-rule="evenodd" clip-rule="evenodd" d="M13.4002 1.375C13.8558 1.375 14.2252 1.74437 14.2252 2.2V4.4C14.2252 4.85564 13.8558 5.225 13.4002 5.225C12.9446 5.225 12.5752 4.85564 12.5752 4.4V2.2C12.5752 1.74437 12.9446 1.375 13.4002 1.375Z" fill="#F1F1F1"/>
<path fill-rule="evenodd" clip-rule="evenodd" d="M17.8002 1.375C18.2558 1.375 18.6252 1.74437 18.6252 2.2V4.4C18.6252 4.85564 18.2558 5.225 17.8002 5.225C17.3446 5.225 16.9752 4.85564 16.9752 4.4V2.2C16.9752 1.74437 17.3446 1.375 17.8002 1.375Z" fill="#F1F1F1"/>
<path fill-rule="evenodd" clip-rule="evenodd" d="M21.3752 8.8C21.3752 8.34436 21.7446 7.975 22.2002 7.975H24.4002C24.8558 7.975 25.2252 8.34436 25.2252 8.8C25.2252 9.25563 24.8558 9.625 24.4002 9.625H22.2002C21.7446 9.625 21.3752 9.25563 21.3752 8.8Z" fill="#F1F1F1"/>
<path fill-rule="evenodd" clip-rule="evenodd" d="M9.0112 21.175C9.46683 21.175 9.8362 21.5444 9.8362 22V24.2C9.8362 24.6556 9.46683 25.025 9.0112 25.025C8.55556 25.025 8.1862 24.6556 8.1862 24.2V22C8.1862 21.5444 8.55556 21.175 9.0112 21.175Z" fill="#F1F1F1"/>
<path fill-rule="evenodd" clip-rule="evenodd" d="M1.5752 8.8C1.5752 8.34436 1.94456 7.975 2.4002 7.975H4.6002C5.05583 7.975 5.4252 8.34436 5.4252 8.8C5.4252 9.25563 5.05583 9.625 4.6002 9.625H2.4002C1.94456 9.625 1.5752 9.25563 1.5752 8.8Z" fill="#F1F1F1"/>
<path fill-rule="evenodd" clip-rule="evenodd" d="M1.5752 13.2C1.5752 12.7444 1.94456 12.375 2.4002 12.375H4.6002C5.05583 12.375 5.4252 12.7444 5.4252 13.2C5.4252 13.6556 5.05583 14.025 4.6002 14.025H2.4002C1.94456 14.025 1.5752 13.6556 1.5752 13.2Z" fill="#F1F1F1"/>
<path fill-rule="evenodd" clip-rule="evenodd" d="M1.5752 17.6C1.5752 17.1444 1.94456 16.775 2.4002 16.775H4.6002C5.05583 16.775 5.4252 17.1444 5.4252 17.6C5.4252 18.0556 5.05583 18.425 4.6002 18.425H2.4002C1.94456 18.425 1.5752 18.0556 1.5752 17.6Z" fill="#F1F1F1"/>
<path fill-rule="evenodd" clip-rule="evenodd" d="M18.5812 17.776C18.0709 17.776 17.6572 18.1897 17.6572 18.7C17.6572 19.2103 18.0709 19.624 18.5812 19.624C19.0915 19.624 19.5052 19.2103 19.5052 18.7C19.5052 18.1897 19.0915 17.776 18.5812 17.776ZM16.0072 18.7C16.0072 17.2784 17.1596 16.126 18.5812 16.126C20.0028 16.126 21.1552 17.2784 21.1552 18.7C21.1552 20.1216 20.0028 21.274 18.5812 21.274C17.1596 21.274 16.0072 20.1216 16.0072 18.7Z" fill="#F1F1F1"/>
<path fill-rule="evenodd" clip-rule="evenodd" d="M16.8383 14.106C16.7852 14.0168 16.6902 14.0099 16.6382 14.0409L16.6314 14.0449L15.6197 14.6341C15.4935 14.7051 15.4448 14.876 15.5208 15.0063L15.5224 15.009C15.8744 15.6177 16.0098 16.3615 15.6388 17.0063C15.2674 17.6517 14.5557 17.908 13.8512 17.908C13.7018 17.908 13.5762 18.0336 13.5762 18.183V19.206C13.5762 19.3748 13.7068 19.4835 13.8362 19.4811L13.8512 19.4809C14.5557 19.4809 15.2674 19.7373 15.6388 20.3827C16.0098 21.0275 15.8744 21.7713 15.5224 22.38L15.5208 22.3827C15.4494 22.5051 15.4843 22.6757 15.6305 22.7612C15.6306 22.7612 15.6304 22.7611 15.6305 22.7612L16.6272 23.3416C16.6988 23.3814 16.794 23.3574 16.8383 23.283L16.8398 23.2805L16.9026 23.1758C17.2544 22.5709 17.8289 22.0853 18.5702 22.0853C19.3115 22.0853 19.886 22.5709 20.2378 23.1758L20.3021 23.283C20.3552 23.3722 20.4502 23.3791 20.5022 23.3481L20.509 23.3441L21.5207 22.7549C21.6469 22.6839 21.6956 22.513 21.6196 22.3827L21.618 22.38C21.266 21.7713 21.1306 21.0275 21.5016 20.3827C21.873 19.7373 22.5846 19.481 23.2892 19.481C23.4386 19.481 23.5642 19.3554 23.5642 19.206V18.183C23.5642 18.0336 23.4386 17.908 23.2892 17.908C22.5846 17.908 21.873 17.6517 21.5016 17.0063C21.1306 16.3615 21.266 15.6177 21.618 15.009L21.6196 15.0063C21.691 14.8839 21.656 14.7132 21.5097 14.6277C21.5096 14.6277 21.5097 14.6278 21.5097 14.6277L20.5132 14.0474C20.4416 14.0076 20.3464 14.0316 20.3021 14.106L20.3006 14.1085L20.2378 14.2132C19.886 14.8181 19.3115 15.3038 18.5702 15.3038C17.8289 15.3038 17.2544 14.8181 16.9026 14.2132L16.8383 14.106ZM18.2553 13.2607C17.7587 12.4281 16.6689 12.1053 15.7981 12.6208L14.8046 13.1994C13.8801 13.7239 13.5572 14.9126 14.0946 15.8361C14.2144 16.0435 14.2122 16.1495 14.2067 16.1823C14.181 16.2035 14.0903 16.258 13.8512 16.258C12.7906 16.258 11.9262 17.1224 11.9262 18.183V19.206C11.9262 20.2661 12.7806 21.1455 13.8569 21.131C14.0917 21.1319 14.1812 21.1856 14.2067 21.2067C14.2122 21.2395 14.2144 21.3455 14.0946 21.5529C13.5514 22.4862 13.8905 23.6564 14.7995 24.1866L15.801 24.7699L15.8069 24.7733C16.6586 25.26 17.7495 24.9763 18.2553 24.1284C18.2556 24.1279 18.2558 24.1274 18.2561 24.127L18.3206 24.0195L18.3274 24.008C18.4464 23.8022 18.5385 23.7499 18.5702 23.7377C18.6019 23.7499 18.694 23.8022 18.813 24.008L18.8843 24.127C18.8846 24.1274 18.8848 24.1279 18.8851 24.1284C19.3817 24.9609 20.4714 25.2837 21.3422 24.7683L22.3358 24.1896C23.2603 23.6651 23.5832 22.4764 23.0458 21.553C22.926 21.3455 22.9282 21.2395 22.9337 21.2067C22.9594 21.1855 23.0501 21.131 23.2892 21.131C24.3498 21.131 25.2142 20.2666 25.2142 19.206V18.183C25.2142 17.1224 24.3498 16.258 23.2892 16.258C23.0501 16.258 22.9594 16.2035 22.9337 16.1823C22.9282 16.1495 22.926 16.0435 23.0458 15.836C23.5889 14.9027 23.2498 13.7326 22.3409 13.2024L21.3394 12.6191L21.3335 12.6157C20.4818 12.129 19.3908 12.4127 18.8851 13.2607C18.8848 13.2611 18.8846 13.2616 18.8843 13.262L18.8198 13.3695L18.813 13.381C18.694 13.5868 18.6019 13.6391 18.5702 13.6513C18.5385 13.6391 18.4464 13.5868 18.3274 13.381L18.2561 13.262C18.2558 13.2616 18.2556 13.2611 18.2553 13.2607Z" fill="#F1F1F1"/>
</svg>
