<svg width="27" height="28" viewBox="0 0 27 28" fill="none" xmlns="http://www.w3.org/2000/svg">
<path fill-rule="evenodd" clip-rule="evenodd" d="M2.81109 8.29888C3.78504 7.14096 5.45486 6.57493 7.9002 6.57493H18.9002C21.3455 6.57493 23.0154 7.14096 23.9893 8.29888C24.9538 9.44556 25.0455 10.952 24.891 12.3567L24.0656 21.1608C23.9444 22.2917 23.6605 23.5315 22.6508 24.454C21.6485 25.3697 20.0957 25.8249 17.8002 25.8249H9.0002C6.70466 25.8249 5.15188 25.3697 4.14962 24.454C3.13989 23.5315 2.85606 22.2917 2.73489 21.1608L2.73373 21.1499L1.90943 12.3567C1.75485 10.952 1.84659 9.44556 2.81109 8.29888ZM4.0738 9.36098C3.5549 9.97789 3.40885 10.9048 3.55019 12.1822L3.55171 12.1959L4.37607 20.9904C4.48613 22.0127 4.71395 22.7347 5.26252 23.2358C5.81951 23.7447 6.87373 24.1749 9.0002 24.1749H17.8002C19.9267 24.1749 20.9809 23.7447 21.5379 23.2358C22.0864 22.7347 22.3143 22.0127 22.4243 20.9904L23.2501 12.1822C23.3914 10.9048 23.2455 9.97789 22.7266 9.36098C22.2155 8.7534 21.1519 8.22493 18.9002 8.22493H7.9002C5.64854 8.22493 4.58485 8.7534 4.0738 9.36098Z" fill="#F1F1F1"/>
<path fill-rule="evenodd" clip-rule="evenodd" d="M9.87325 5.25534C9.82652 5.61327 9.8252 6.02003 9.8252 6.51993V7.39993C9.8252 7.85556 9.45583 8.22493 9.0002 8.22493C8.54456 8.22493 8.1752 7.85556 8.1752 7.39993L8.17519 6.49134C8.17517 6.02546 8.17514 5.5166 8.23714 5.04173C8.30138 4.5497 8.43903 4.02733 8.76152 3.56074C9.43992 2.57917 10.6827 2.17493 12.5202 2.17493H14.2802C16.1177 2.17493 17.3605 2.57917 18.0389 3.56074C18.3614 4.02733 18.499 4.5497 18.5633 5.04173C18.6253 5.5166 18.6252 6.02546 18.6252 6.49135L18.6252 7.39993C18.6252 7.85556 18.2558 8.22493 17.8002 8.22493C17.3446 8.22493 16.9752 7.85556 16.9752 7.39993V6.51993C16.9752 6.02003 16.9739 5.61327 16.9271 5.25534C16.8814 4.90484 16.799 4.66889 16.6815 4.49887C16.4799 4.20719 15.9627 3.82493 14.2802 3.82493H12.5202C10.8377 3.82493 10.3205 4.20719 10.1189 4.49887C10.0014 4.66889 9.91901 4.90484 9.87325 5.25534Z" fill="#F1F1F1"/>
<path fill-rule="evenodd" clip-rule="evenodd" d="M12.0261 14.8258C12.0252 14.9043 12.0252 14.9938 12.0252 15.0999V16.2329C12.0252 16.5426 12.0279 16.7704 12.0548 16.9636C12.0807 17.1495 12.1217 17.2399 12.1565 17.289C12.1953 17.3438 12.3888 17.5749 13.4002 17.5749C14.4161 17.5749 14.6073 17.3415 14.6453 17.2873C14.6803 17.2373 14.7213 17.1454 14.7467 16.9574C14.7732 16.762 14.7752 16.5332 14.7752 16.2219V15.0999C14.7752 14.9938 14.7752 14.9043 14.7743 14.8258C14.6958 14.8249 14.6063 14.8249 14.5002 14.8249H12.3002C12.1941 14.8249 12.1046 14.8249 12.0261 14.8258ZM12.2641 13.1749C12.2761 13.1749 12.2882 13.1749 12.3002 13.1749H14.5002C14.5122 13.1749 14.5243 13.1749 14.5363 13.1749C14.7796 13.1749 15.0261 13.1748 15.2272 13.1972C15.4323 13.2199 15.7729 13.2809 16.0461 13.5541C16.3193 13.8273 16.3802 14.1678 16.403 14.3729C16.4253 14.574 16.4253 14.8205 16.4252 15.0638C16.4252 15.0758 16.4252 15.0879 16.4252 15.0999V16.2343C16.4252 16.52 16.4252 16.858 16.3818 17.1787C16.3368 17.5115 16.2382 17.8892 15.9968 18.2338C15.4821 18.9688 14.5732 19.2249 13.4002 19.2249C12.2336 19.2249 11.327 18.9721 10.8104 18.2431C10.5674 17.9004 10.4669 17.524 10.4205 17.1911C10.3752 16.8656 10.3752 16.5228 10.3752 16.2329V15.0999C10.3752 15.0879 10.3752 15.0758 10.3752 15.0638C10.3751 14.8205 10.3751 14.574 10.3974 14.3729C10.4202 14.1678 10.4811 13.8273 10.7543 13.5541C11.0275 13.2809 11.3681 13.2199 11.5732 13.1972C11.7743 13.1748 12.0208 13.1749 12.2641 13.1749Z" fill="#F1F1F1"/>
<path fill-rule="evenodd" clip-rule="evenodd" d="M24.6824 12.4147C24.9504 12.7832 24.8689 13.2991 24.5004 13.5671C21.8427 15.5001 18.8062 16.6497 15.7033 17.0405C15.2512 17.0974 14.8386 16.7771 14.7817 16.325C14.7247 15.8729 15.0451 15.4603 15.4971 15.4034C18.3342 15.0461 21.1057 13.9958 23.53 12.2327C23.8984 11.9647 24.4144 12.0462 24.6824 12.4147Z" fill="#F1F1F1"/>
<path fill-rule="evenodd" clip-rule="evenodd" d="M2.40139 12.731C2.65874 12.355 3.17217 12.2588 3.54817 12.5161C5.91195 14.134 8.57752 15.1091 11.292 15.4131C11.7448 15.4638 12.0708 15.8719 12.0201 16.3247C11.9694 16.7775 11.5612 17.1035 11.1084 17.0528C8.12488 16.7187 5.20244 15.6479 2.61622 13.8777C2.24023 13.6204 2.14404 13.107 2.40139 12.731Z" fill="#F1F1F1"/>
</svg>
