<svg width="27" height="27" viewBox="0 0 27 27" fill="none" xmlns="http://www.w3.org/2000/svg">
<path fill-rule="evenodd" clip-rule="evenodd" d="M14.7736 22.2007C14.7736 21.4413 14.158 20.8257 13.3986 20.8257C12.6392 20.8257 12.0236 21.4413 12.0236 22.2007C12.0236 22.9601 12.6392 23.5757 13.3986 23.5757C14.158 23.5757 14.7736 22.9601 14.7736 22.2007ZM13.3986 19.1757C15.0693 19.1757 16.4236 20.5301 16.4236 22.2007C16.4236 23.8714 15.0693 25.2257 13.3986 25.2257C11.728 25.2257 10.3736 23.8714 10.3736 22.2007C10.3736 20.5301 11.728 19.1757 13.3986 19.1757Z" fill="#F1F1F1"/>
<path fill-rule="evenodd" clip-rule="evenodd" d="M23.5736 22.2007C23.5736 21.4413 22.958 20.8257 22.1986 20.8257C21.4392 20.8257 20.8236 21.4413 20.8236 22.2007C20.8236 22.9601 21.4392 23.5757 22.1986 23.5757C22.958 23.5757 23.5736 22.9601 23.5736 22.2007ZM22.1986 19.1757C23.8693 19.1757 25.2236 20.5301 25.2236 22.2007C25.2236 23.8714 23.8693 25.2257 22.1986 25.2257C20.528 25.2257 19.1736 23.8714 19.1736 22.2007C19.1736 20.5301 20.528 19.1757 22.1986 19.1757Z" fill="#F1F1F1"/>
<path fill-rule="evenodd" clip-rule="evenodd" d="M5.97363 22.2007C5.97363 21.4413 5.35802 20.8257 4.59863 20.8257C3.83924 20.8257 3.22363 21.4413 3.22363 22.2007C3.22363 22.9601 3.83924 23.5757 4.59863 23.5757C5.35802 23.5757 5.97363 22.9601 5.97363 22.2007ZM4.59863 19.1757C6.26929 19.1757 7.62363 20.5301 7.62363 22.2007C7.62363 23.8714 6.26929 25.2257 4.59863 25.2257C2.92797 25.2257 1.57363 23.8714 1.57363 22.2007C1.57363 20.5301 2.92797 19.1757 4.59863 19.1757Z" fill="#F1F1F1"/>
<path fill-rule="evenodd" clip-rule="evenodd" d="M14.7736 4.60073C14.7736 3.84134 14.158 3.22573 13.3986 3.22573C12.6392 3.22573 12.0236 3.84134 12.0236 4.60073C12.0236 5.36012 12.6392 5.97573 13.3986 5.97573C14.158 5.97573 14.7736 5.36012 14.7736 4.60073ZM13.3986 1.57573C15.0693 1.57573 16.4236 2.93007 16.4236 4.60073C16.4236 6.27139 15.0693 7.62573 13.3986 7.62573C11.728 7.62573 10.3736 6.27139 10.3736 4.60073C10.3736 2.93007 11.728 1.57573 13.3986 1.57573Z" fill="#F1F1F1"/>
<path fill-rule="evenodd" clip-rule="evenodd" d="M13.3986 5.97573C13.8543 5.97573 14.2236 6.3451 14.2236 6.80073L14.2236 20.0007C14.2236 20.4564 13.8543 20.8257 13.3986 20.8257C12.943 20.8257 12.5736 20.4564 12.5736 20.0007L12.5736 6.80073C12.5736 6.3451 12.943 5.97573 13.3986 5.97573Z" fill="#F1F1F1"/>
<path fill-rule="evenodd" clip-rule="evenodd" d="M21.957 12.5424C22.7163 13.3017 23.0236 14.3736 23.0236 15.6007L23.0236 20.0007C23.0236 20.4564 22.6543 20.8257 22.1986 20.8257C21.743 20.8257 21.3736 20.4564 21.3736 20.0007L21.3736 15.6007C21.3736 14.6279 21.131 14.0498 20.7903 13.7091C20.4496 13.3684 19.8715 13.1257 18.8986 13.1257L7.89863 13.1257C6.9258 13.1257 6.34771 13.3684 6.007 13.7091C5.66628 14.0498 5.42363 14.6279 5.42363 15.6007L5.42363 20.0007C5.42363 20.4564 5.05427 20.8257 4.59863 20.8257C4.143 20.8257 3.77363 20.4564 3.77363 20.0007L3.77363 15.6007C3.77363 14.3736 4.08098 13.3017 4.84027 12.5424C5.59955 11.7831 6.67146 11.4757 7.89863 11.4757L18.8986 11.4757C20.1258 11.4757 21.1977 11.7831 21.957 12.5424Z" fill="#F1F1F1"/>
</svg>
