<svg width="27" height="27" viewBox="0 0 27 27" fill="none" xmlns="http://www.w3.org/2000/svg">
<path fill-rule="evenodd" clip-rule="evenodd" d="M13.4002 10.725C12.0333 10.725 10.9252 11.8331 10.9252 13.2C10.9252 14.5669 12.0333 15.675 13.4002 15.675C14.7671 15.675 15.8752 14.5669 15.8752 13.2C15.8752 11.8331 14.7671 10.725 13.4002 10.725ZM9.2752 13.2C9.2752 10.9218 11.122 9.075 13.4002 9.075C15.6784 9.075 17.5252 10.9218 17.5252 13.2C17.5252 15.4782 15.6784 17.325 13.4002 17.325C11.122 17.325 9.2752 15.4782 9.2752 13.2Z" fill="#F1F1F1"/>
<path fill-rule="evenodd" clip-rule="evenodd" d="M10.764 4.14719C10.4696 3.65664 9.8495 3.50405 9.38901 3.77801L9.37701 3.78515L7.47396 4.87405C6.87185 5.21811 6.66412 5.99817 7.00853 6.59427L6.2942 7.007L7.00796 6.59329C7.59654 7.60873 7.75476 8.72169 7.229 9.63405C6.70331 10.5463 5.66146 10.967 4.4902 10.967C3.79365 10.967 3.2252 11.5408 3.2252 12.232V14.168C3.2252 14.8592 3.79365 15.433 4.4902 15.433C5.66146 15.433 6.70331 15.8537 7.229 16.766C7.75469 17.6782 7.59658 18.791 7.00819 19.8063C6.66426 20.4023 6.8716 21.1817 7.47351 21.5257L9.38907 22.6219C9.84955 22.8958 10.4695 22.7434 10.764 22.2529L10.8822 22.0486C11.4706 21.0336 12.3574 20.3417 13.4098 20.3417C14.463 20.3417 15.3471 21.0341 15.9301 22.0503C15.9304 22.0508 15.9307 22.0512 15.9309 22.0517L16.0474 22.2528C16.3418 22.7433 16.9619 22.8959 17.4224 22.622L17.4344 22.6149L19.3374 21.526C19.938 21.1828 20.1489 20.4135 19.802 19.8042C19.2146 18.7894 19.0571 17.6775 19.5824 16.766C20.1081 15.8537 21.1499 15.433 22.3212 15.433C23.0177 15.433 23.5862 14.8592 23.5862 14.168V12.232C23.5862 11.5355 23.0124 10.967 22.3212 10.967C21.1499 10.967 20.1081 10.5463 19.5824 9.63405C19.0567 8.72187 19.2148 7.60917 19.8031 6.59388C20.1472 5.99783 19.9399 5.21829 19.3379 4.8743L17.4223 3.77811C16.9618 3.50415 16.3418 3.65665 16.0474 4.14719L15.9292 4.35136C15.3408 5.36644 14.454 6.05825 13.4016 6.05825C12.3485 6.05825 11.4644 5.36606 10.8814 4.34999C10.8811 4.34943 10.8808 4.34886 10.8805 4.3483L10.764 4.14719ZM8.55193 2.35611C9.8273 1.60221 11.445 2.06473 12.1842 3.30718L12.1892 3.31562L12.3102 3.52465L12.3119 3.5277C12.7189 4.23771 13.1435 4.40825 13.4016 4.40825C13.6609 4.40825 14.0886 4.23626 14.5012 3.52464C14.5013 3.52452 14.5012 3.52476 14.5012 3.52464L14.6271 3.30715C15.3663 2.06469 16.9841 1.6022 18.2595 2.35612L20.1565 3.4417C21.5564 4.24164 22.0311 6.03583 21.2315 7.41973L21.231 7.42071C20.8185 8.13227 20.8833 8.5868 21.012 8.8102C21.1408 9.03373 21.5015 9.317 22.3212 9.317C23.918 9.317 25.2362 10.6185 25.2362 12.232V14.168C25.2362 15.7648 23.9347 17.083 22.3212 17.083C21.5015 17.083 21.1408 17.3663 21.012 17.5898C20.8833 17.8132 20.8185 18.2677 21.231 18.9793L21.2335 18.9837C22.029 20.3759 21.5575 22.1574 20.157 22.958C20.1568 22.9581 20.1571 22.958 20.157 22.958L18.2594 24.0439C16.984 24.7978 15.3664 24.3352 14.6272 23.0928L14.6222 23.0844L14.5012 22.8754L14.4995 22.8723C14.0924 22.1623 13.6679 21.9917 13.4098 21.9917C13.1505 21.9917 12.7227 22.1637 12.3102 22.8754C12.3101 22.8755 12.3102 22.8752 12.3102 22.8754L12.1843 23.0928C11.4451 24.3353 9.82738 24.7978 8.55202 24.0439L6.65488 22.9583C6.65473 22.9582 6.65503 22.9584 6.65488 22.9583C5.25533 22.1582 4.78035 20.364 5.57986 18.9803L5.58043 18.9793C5.99286 18.2677 5.92813 17.8132 5.79939 17.5898C5.67058 17.3663 5.30993 17.083 4.4902 17.083C2.87674 17.083 1.5752 15.7648 1.5752 14.168V12.232C1.5752 10.6352 2.87674 9.317 4.4902 9.317C5.30993 9.317 5.67058 9.03373 5.79939 8.8102C5.92813 8.58681 5.99286 8.13227 5.58043 7.42071L5.57986 7.41973C4.78035 6.03597 5.25489 4.24202 6.65444 3.44195L8.55193 2.35611Z" fill="#F1F1F1"/>
</svg>
