<svg width="27" height="27" viewBox="0 0 27 27" fill="none" xmlns="http://www.w3.org/2000/svg">
<path fill-rule="evenodd" clip-rule="evenodd" d="M11.4752 21.85C11.4752 21.3944 11.8446 21.025 12.3002 21.025H23.3002C23.7558 21.025 24.1252 21.3944 24.1252 21.85C24.1252 22.3057 23.7558 22.675 23.3002 22.675H12.3002C11.8446 22.675 11.4752 22.3057 11.4752 21.85Z" fill="#F1F1F1"/>
<path fill-rule="evenodd" clip-rule="evenodd" d="M11.4752 14.15C11.4752 13.6944 11.8446 13.325 12.3002 13.325H23.3002C23.7558 13.325 24.1252 13.6944 24.1252 14.15C24.1252 14.6057 23.7558 14.975 23.3002 14.975H12.3002C11.8446 14.975 11.4752 14.6057 11.4752 14.15Z" fill="#F1F1F1"/>
<path fill-rule="evenodd" clip-rule="evenodd" d="M11.4752 6.45002C11.4752 5.99439 11.8446 5.62502 12.3002 5.62502H23.3002C23.7558 5.62502 24.1252 5.99439 24.1252 6.45002C24.1252 6.90566 23.7558 7.27502 23.3002 7.27502H12.3002C11.8446 7.27502 11.4752 6.90566 11.4752 6.45002Z" fill="#F1F1F1"/>
<path fill-rule="evenodd" clip-rule="evenodd" d="M8.48356 3.66666C8.80574 3.98884 8.80574 4.5112 8.48356 4.83339L5.18356 8.13339C4.86138 8.45557 4.33902 8.45557 4.01683 8.13339L2.91683 7.03339C2.59465 6.7112 2.59465 6.18884 2.91683 5.86666C3.23902 5.54448 3.76138 5.54448 4.08356 5.86666L4.6002 6.3833L7.31683 3.66666C7.63902 3.34448 8.16138 3.34448 8.48356 3.66666Z" fill="#F1F1F1"/>
<path fill-rule="evenodd" clip-rule="evenodd" d="M8.48356 11.3667C8.80574 11.6888 8.80574 12.2112 8.48356 12.5334L5.18356 15.8334C4.86138 16.1556 4.33902 16.1556 4.01683 15.8334L2.91683 14.7334C2.59465 14.4112 2.59465 13.8888 2.91683 13.5667C3.23902 13.2445 3.76138 13.2445 4.08356 13.5667L4.6002 14.0833L7.31683 11.3667C7.63902 11.0445 8.16138 11.0445 8.48356 11.3667Z" fill="#F1F1F1"/>
<path fill-rule="evenodd" clip-rule="evenodd" d="M8.48356 19.0667C8.80574 19.3888 8.80574 19.9112 8.48356 20.2334L5.18356 23.5334C4.86138 23.8556 4.33902 23.8556 4.01683 23.5334L2.91683 22.4334C2.59465 22.1112 2.59465 21.5888 2.91683 21.2667C3.23902 20.9445 3.76138 20.9445 4.08356 21.2667L4.6002 21.7833L7.31683 19.0667C7.63902 18.7445 8.16138 18.7445 8.48356 19.0667Z" fill="#F1F1F1"/>
</svg>
