<svg width="27" height="28" viewBox="0 0 27 28" fill="none" xmlns="http://www.w3.org/2000/svg">
<path fill-rule="evenodd" clip-rule="evenodd" d="M19.9012 3.82493C18.7838 3.82493 17.8882 4.72056 17.8882 5.83793C17.8882 6.91364 18.7155 7.7806 19.7629 7.84853C19.8507 7.84073 19.9407 7.84073 20.0285 7.84853C21.074 7.78067 21.905 6.91483 21.9142 5.83498C21.9126 4.72788 21.0155 3.82493 19.9012 3.82493ZM16.2382 5.83793C16.2382 3.8093 17.8726 2.17493 19.9012 2.17493C21.9319 2.17493 23.5642 3.82238 23.5642 5.83793V5.84382H23.5642C23.55 7.82264 21.9924 9.42929 20.0301 9.50039C19.9852 9.50202 19.9402 9.49997 19.8957 9.49429C19.8512 9.49997 19.8062 9.50202 19.7613 9.50039C17.8 9.42933 16.2382 7.82236 16.2382 5.83793Z" fill="#F1F1F1"/>
<path fill-rule="evenodd" clip-rule="evenodd" d="M18.6918 10.5363C20.3642 10.2433 22.2711 10.5226 23.6573 11.4425L23.6588 11.4435C24.6064 12.0752 25.1895 12.9905 25.1895 14.0109C25.1895 15.0314 24.6064 15.9467 23.6588 16.5784C22.2828 17.4993 20.3987 17.7776 18.7306 17.4976C18.2813 17.4221 17.9781 16.9967 18.0536 16.5473C18.129 16.098 18.5544 15.7949 19.0038 15.8703C20.3491 16.0962 21.7862 15.8467 22.7421 15.2065L22.7436 15.2055C23.347 14.8032 23.5395 14.3545 23.5395 14.0109C23.5395 13.6675 23.3472 13.2191 22.7443 12.8169C21.7766 12.1751 20.3179 11.9266 18.9766 12.1616C18.5278 12.2402 18.1002 11.9401 18.0216 11.4913C17.9429 11.0425 18.243 10.6149 18.6918 10.5363Z" fill="#F1F1F1"/>
<path fill-rule="evenodd" clip-rule="evenodd" d="M3.20319 5.83793C3.20319 3.82238 4.83548 2.17493 6.8662 2.17493C8.89483 2.17493 10.5292 3.8093 10.5292 5.83793C10.5292 7.82236 8.96736 9.42933 7.00607 9.50039C6.96117 9.50202 6.91623 9.49997 6.8717 9.49429C6.82716 9.49997 6.78222 9.50202 6.73732 9.50039C4.775 9.42929 3.21735 7.82264 3.20322 5.84382L3.20319 5.83793ZM4.8532 5.83499C4.86241 6.91483 5.69335 7.78067 6.73887 7.84853C6.82672 7.84073 6.91668 7.84073 7.00453 7.84853C8.05185 7.7806 8.87919 6.91364 8.87919 5.83793C8.87919 4.72056 7.98356 3.82493 6.8662 3.82493C5.7519 3.82493 4.85478 4.72788 4.8532 5.83499Z" fill="#F1F1F1"/>
<path fill-rule="evenodd" clip-rule="evenodd" d="M4.02308 12.8169C4.99082 12.1751 6.44953 11.9266 7.79084 12.1616C8.23964 12.2402 8.6672 11.9401 8.74582 11.4913C8.82444 11.0425 8.52435 10.6149 8.07555 10.5363C6.40321 10.2433 4.49632 10.5226 3.11005 11.4425L3.11005 11.4425L3.10857 11.4435C2.16105 12.0752 1.57795 12.9905 1.57795 14.0109C1.57795 15.0311 2.16074 15.9462 3.10782 16.5779C4.48389 17.4992 6.36835 17.7777 8.03679 17.4976C8.48614 17.4221 8.78925 16.9967 8.71381 16.5473C8.63837 16.098 8.21295 15.7949 7.76361 15.8703C6.41834 16.0962 4.98119 15.8467 4.02532 15.2065L4.02383 15.2055C3.42035 14.8032 3.22795 14.3545 3.22795 14.0109C3.22795 13.6675 3.42019 13.2191 4.02308 12.8169Z" fill="#F1F1F1"/>
<path fill-rule="evenodd" clip-rule="evenodd" d="M13.3012 12.0419C12.1838 12.0419 11.2882 12.9376 11.2882 14.0549C11.2882 15.1306 12.1155 15.9976 13.1629 16.0655C13.2519 16.0576 13.3432 16.0577 13.4322 16.0659C14.4693 16.0064 15.3049 15.1377 15.3142 14.052C15.3126 12.9449 14.4155 12.0419 13.3012 12.0419ZM9.6382 14.0549C9.6382 12.0263 11.2726 10.3919 13.3012 10.3919C15.3319 10.3919 16.9642 12.0394 16.9642 14.0549V14.0608H16.9642C16.9501 16.0343 15.3964 17.6604 13.4241 17.7176C13.3812 17.7188 13.3383 17.7167 13.2957 17.7113C13.2512 17.717 13.2062 17.719 13.1613 17.7174C11.2 17.6463 9.6382 16.0394 9.6382 14.0549Z" fill="#F1F1F1"/>
<path fill-rule="evenodd" clip-rule="evenodd" d="M13.4043 18.6584C14.6897 18.6584 16.0194 18.9785 17.0588 19.6715C18.0063 20.3032 18.5894 21.2185 18.5894 22.2389C18.5894 23.2592 18.0065 24.1744 17.0592 24.8061C16.0153 25.504 14.6861 25.8277 13.4002 25.8277C12.1143 25.8277 10.7851 25.504 9.74121 24.8061C8.7939 24.1745 8.21095 23.2592 8.21095 22.2389C8.21095 21.2185 8.79405 20.3032 9.74157 19.6715L9.74355 19.6702L9.74356 19.6702C10.7874 18.9786 12.1187 18.6584 13.4043 18.6584ZM10.6558 21.045C10.0531 21.4472 9.86095 21.8956 9.86095 22.2389C9.86095 22.5825 10.0533 23.0312 10.6568 23.4335L10.6578 23.4341C11.3739 23.913 12.3654 24.1777 13.4002 24.1777C14.435 24.1777 15.4265 23.913 16.1426 23.4341L16.1436 23.4335C16.747 23.0312 16.9394 22.5825 16.9394 22.2389C16.9394 21.8954 16.747 21.4467 16.1436 21.0444C15.434 20.5713 14.4427 20.3084 13.4043 20.3084C12.3666 20.3084 11.3719 20.571 10.6558 21.045Z" fill="#F1F1F1"/>
</svg>
