<svg width="27" height="27" viewBox="0 0 27 27" fill="none" xmlns="http://www.w3.org/2000/svg">
<path fill-rule="evenodd" clip-rule="evenodd" d="M13.1692 4.18953C12.76 4.18953 12.3964 4.26107 12.1643 4.36499L12.162 4.36603L5.6702 7.24883C4.81808 7.62477 4.7597 7.96489 4.7597 8.00102C4.7597 8.03716 4.81808 8.37728 5.6702 8.75322L5.67202 8.75402L12.1643 11.6371C12.3964 11.741 12.76 11.8125 13.1692 11.8125C13.5784 11.8125 13.942 11.741 14.174 11.6371L14.1764 11.636L20.6664 8.75402L20.6682 8.75322C21.5203 8.37728 21.5787 8.03716 21.5787 8.00102C21.5787 7.96489 21.5203 7.62477 20.6682 7.24883L14.1764 4.36603L14.174 4.36499C13.942 4.26107 13.5784 4.18953 13.1692 4.18953ZM14.8471 2.85851C14.3424 2.63283 13.733 2.53953 13.1692 2.53953C12.6053 2.53953 11.9959 2.63283 11.4913 2.85851C11.4909 2.85869 11.4905 2.85888 11.49 2.85906L5.00419 5.73922C5.00448 5.73909 5.0039 5.73935 5.00419 5.73922C3.98669 6.18833 3.1097 6.94296 3.1097 8.00102C3.1097 9.05905 3.98575 9.81328 5.00321 10.2624C5.00288 10.2623 5.00354 10.2625 5.00321 10.2624L11.49 13.143C11.4905 13.1432 11.491 13.1434 11.4915 13.1436C11.9961 13.3692 12.6054 13.4625 13.1692 13.4625C13.733 13.4625 14.3424 13.3692 14.847 13.1436C14.8475 13.1434 14.8479 13.1432 14.8483 13.143L21.3342 10.2628C21.3339 10.263 21.3345 10.2627 21.3342 10.2628C22.3517 9.81372 23.2287 9.05909 23.2287 8.00102C23.2287 6.94292 22.3525 6.18866 21.335 5.73955C21.3352 5.73967 21.3347 5.73944 21.335 5.73955L14.8483 2.85906C14.8479 2.85888 14.8475 2.85869 14.8471 2.85851Z" fill="#F1F1F1"/>
<path fill-rule="evenodd" clip-rule="evenodd" d="M3.5002 11.675C3.95583 11.675 4.3252 12.0444 4.3252 12.5C4.3252 12.7678 4.43111 13.1115 4.64408 13.4388C4.85705 13.7662 5.12827 14.0021 5.37344 14.1103L5.37547 14.1112L12.8429 17.4325C12.8432 17.4327 12.8426 17.4324 12.8429 17.4325C13.2043 17.5921 13.609 17.5897 13.952 17.435L13.9559 17.4332L21.4249 14.1112L21.427 14.1103C21.6721 14.0021 21.9433 13.7662 22.1563 13.4388C22.3693 13.1115 22.4752 12.7678 22.4752 12.5C22.4752 12.0444 22.8446 11.675 23.3002 11.675C23.7558 11.675 24.1252 12.0444 24.1252 12.5C24.1252 13.1563 23.8846 13.808 23.5393 14.3387C23.1942 14.8691 22.6958 15.3535 22.0944 15.6193C22.0941 15.6195 22.0947 15.6192 22.0944 15.6193L14.6304 18.9391C14.6296 18.9394 14.6289 18.9397 14.6282 18.9401C13.85 19.2903 12.9572 19.2873 12.1755 18.9415L4.70695 15.6197C4.70658 15.6196 4.7062 15.6194 4.70582 15.6192C4.1045 15.3534 3.60612 14.8691 3.26106 14.3387C2.91578 13.808 2.6752 13.1563 2.6752 12.5C2.6752 12.0444 3.04456 11.675 3.5002 11.675Z" fill="#F1F1F1"/>
<path fill-rule="evenodd" clip-rule="evenodd" d="M3.5002 17.175C3.95583 17.175 4.3252 17.5444 4.3252 18C4.3252 18.6939 4.73544 19.3248 5.37628 19.6116C5.37649 19.6117 5.37608 19.6115 5.37628 19.6116L12.8429 22.9325C12.8432 22.9327 12.8426 22.9324 12.8429 22.9325C13.2043 23.0921 13.609 23.0897 13.952 22.935L13.9559 22.9332L21.4235 19.6119C21.4237 19.6118 21.4233 19.612 21.4235 19.6119C22.0643 19.3251 22.4752 18.6939 22.4752 18C22.4752 17.5444 22.8446 17.175 23.3002 17.175C23.7558 17.175 24.1252 17.5444 24.1252 18C24.1252 19.3519 23.3257 20.5688 22.0969 21.1182L22.0955 21.1188L14.6304 24.4391C14.6296 24.4394 14.6289 24.4397 14.6282 24.4401C13.85 24.7903 12.9572 24.7873 12.1755 24.4415L4.70349 21.1182C3.47469 20.5688 2.6752 19.3519 2.6752 18C2.6752 17.5444 3.04456 17.175 3.5002 17.175Z" fill="#F1F1F1"/>
</svg>
