<svg width="27" height="27" viewBox="0 0 27 27" fill="none" xmlns="http://www.w3.org/2000/svg">
<path fill-rule="evenodd" clip-rule="evenodd" d="M13.4002 3.62498C7.78383 3.62498 3.2252 8.18361 3.2252 13.8C3.2252 19.4163 7.78383 23.975 13.4002 23.975C19.0166 23.975 23.5752 19.4163 23.5752 13.8C23.5752 8.18361 19.0166 3.62498 13.4002 3.62498ZM1.5752 13.8C1.5752 7.27234 6.87256 1.97498 13.4002 1.97498C19.9278 1.97498 25.2252 7.27234 25.2252 13.8C25.2252 20.3276 19.9278 25.625 13.4002 25.625C6.87256 25.625 1.5752 20.3276 1.5752 13.8Z" fill="#F1F1F1"/>
<path fill-rule="evenodd" clip-rule="evenodd" d="M12.9932 8.03598C13.4488 8.03598 13.8182 8.40534 13.8182 8.86098V13.371C13.8182 13.5399 13.8827 13.7847 14.0261 14.0362C14.1695 14.2877 14.3473 14.4676 14.4918 14.5532L14.494 14.5545L14.494 14.5545L17.904 16.5895C18.2952 16.823 18.4231 17.3295 18.1896 17.7208C17.9561 18.112 17.4497 18.2399 17.0584 18.0064L13.6506 15.9727C13.6502 15.9725 13.6498 15.9723 13.6495 15.972C13.2005 15.7056 12.8396 15.2864 12.5928 14.8535C12.3457 14.4203 12.1682 13.8951 12.1682 13.371V8.86098C12.1682 8.40534 12.5376 8.03598 12.9932 8.03598Z" fill="#F1F1F1"/>
</svg>
