<svg width="56" height="56" viewBox="0 0 56 56" fill="none" xmlns="http://www.w3.org/2000/svg">
<rect x="0.599609" y="0.200195" width="55.2" height="55.2" rx="27.6" fill="#F0C274"/>
<path fill-rule="evenodd" clip-rule="evenodd" d="M28.1996 17.6252C25.6177 17.6252 23.5246 19.7183 23.5246 22.3002C23.5246 24.8822 25.6177 26.9752 28.1996 26.9752C30.7815 26.9752 32.8746 24.8822 32.8746 22.3002C32.8746 19.7183 30.7815 17.6252 28.1996 17.6252ZM21.8746 22.3002C21.8746 18.807 24.7064 15.9752 28.1996 15.9752C31.6928 15.9752 34.5246 18.807 34.5246 22.3002C34.5246 25.7934 31.6928 28.6252 28.1996 28.6252C24.7064 28.6252 21.8746 25.7934 21.8746 22.3002Z" fill="white"/>
<path fill-rule="evenodd" clip-rule="evenodd" d="M17.9256 38.8002C17.9256 33.9373 22.6964 30.2752 28.1996 30.2752C33.7028 30.2752 38.4736 33.9373 38.4736 38.8002C38.4736 39.2558 38.1042 39.6252 37.6486 39.6252C37.193 39.6252 36.8236 39.2558 36.8236 38.8002C36.8236 35.1491 33.1244 31.9252 28.1996 31.9252C23.2748 31.9252 19.5756 35.1491 19.5756 38.8002C19.5756 39.2558 19.2062 39.6252 18.7506 39.6252C18.295 39.6252 17.9256 39.2558 17.9256 38.8002Z" fill="white"/>
</svg>
