<svg width="56" height="56" viewBox="0 0 56 56" fill="none" xmlns="http://www.w3.org/2000/svg">
<rect x="0.599609" y="0.200195" width="55.2" height="55.2" rx="27.6" fill="#D398E7"/>
<path fill-rule="evenodd" clip-rule="evenodd" d="M16.1996 39.5002C16.1996 39.0032 16.6026 38.6002 17.0996 38.6002H38.6996C39.1967 38.6002 39.5996 39.0032 39.5996 39.5002C39.5996 39.9973 39.1967 40.4002 38.6996 40.4002H17.0996C16.6026 40.4002 16.1996 39.9973 16.1996 39.5002Z" fill="white"/>
<path fill-rule="evenodd" clip-rule="evenodd" d="M16.1996 24.3573C16.1996 23.2002 17.1426 22.2573 18.2996 22.2573H20.2196C21.3766 22.2573 22.3196 23.2002 22.3196 24.3573V34.7013C22.3196 35.8583 21.3766 36.8013 20.2196 36.8013H18.2996C17.1426 36.8013 16.1996 35.8583 16.1996 34.7013V24.3573ZM18.2996 24.0573C18.1367 24.0573 17.9996 24.1943 17.9996 24.3573V34.7013C17.9996 34.8642 18.1367 35.0013 18.2996 35.0013H20.2196C20.3825 35.0013 20.5196 34.8642 20.5196 34.7013V24.3573C20.5196 24.1943 20.3825 24.0573 20.2196 24.0573H18.2996Z" fill="white"/>
<path fill-rule="evenodd" clip-rule="evenodd" d="M24.8387 20.5276C24.8387 19.3705 25.7816 18.4276 26.9387 18.4276H28.8586C30.0157 18.4276 30.9586 19.3705 30.9586 20.5276V34.6995C30.9586 35.8566 30.0157 36.7995 28.8586 36.7995H26.9387C25.7816 36.7995 24.8387 35.8566 24.8387 34.6995V20.5276ZM26.9387 20.2276C26.7757 20.2276 26.6387 20.3646 26.6387 20.5276V34.6995C26.6387 34.8625 26.7757 34.9995 26.9387 34.9995H28.8586C29.0216 34.9995 29.1586 34.8625 29.1586 34.6995V20.5276C29.1586 20.3646 29.0216 20.2276 28.8586 20.2276H26.9387Z" fill="white"/>
<path fill-rule="evenodd" clip-rule="evenodd" d="M33.4777 16.7002C33.4777 15.5432 34.4207 14.6002 35.5777 14.6002H37.4977C38.6548 14.6002 39.5977 15.5432 39.5977 16.7002V34.7002C39.5977 35.8573 38.6548 36.8002 37.4977 36.8002H35.5777C34.4207 36.8002 33.4777 35.8573 33.4777 34.7002V16.7002ZM35.5777 16.4002C35.4148 16.4002 35.2777 16.5373 35.2777 16.7002V34.7002C35.2777 34.8632 35.4148 35.0002 35.5777 35.0002H37.4977C37.6607 35.0002 37.7977 34.8632 37.7977 34.7002V16.7002C37.7977 16.5373 37.6607 16.4002 37.4977 16.4002H35.5777Z" fill="white"/>
</svg>
