<svg width="56" height="56" viewBox="0 0 56 56" fill="none" xmlns="http://www.w3.org/2000/svg">
<rect x="0.599609" y="0.200195" width="55.2" height="55.2" rx="27.6" fill="#70A1E6"/>
<path fill-rule="evenodd" clip-rule="evenodd" d="M28.1996 17.6252C22.5832 17.6252 18.0246 22.1839 18.0246 27.8002C18.0246 33.4166 22.5832 37.9752 28.1996 37.9752C33.816 37.9752 38.3746 33.4166 38.3746 27.8002C38.3746 22.1839 33.816 17.6252 28.1996 17.6252ZM16.3746 27.8002C16.3746 21.2726 21.672 15.9752 28.1996 15.9752C34.7272 15.9752 40.0246 21.2726 40.0246 27.8002C40.0246 34.3279 34.7272 39.6252 28.1996 39.6252C21.672 39.6252 16.3746 34.3279 16.3746 27.8002Z" fill="#F1F1F1"/>
<path fill-rule="evenodd" clip-rule="evenodd" d="M27.7926 22.0362C28.2482 22.0362 28.6176 22.4056 28.6176 22.8612V27.3712C28.6176 27.5401 28.6821 27.7849 28.8255 28.0364C28.969 28.2879 29.1467 28.4678 29.2912 28.5535L29.2934 28.5548L29.2934 28.5548L32.7034 30.5898C33.0947 30.8232 33.2225 31.3297 32.9891 31.721C32.7556 32.1122 32.2491 32.2401 31.8578 32.0066L28.45 29.9729C28.4496 29.9727 28.4493 29.9725 28.4489 29.9723C27.9999 29.7058 27.6391 29.2866 27.3922 28.8538C27.1451 28.4205 26.9676 27.8953 26.9676 27.3712V22.8612C26.9676 22.4056 27.337 22.0362 27.7926 22.0362Z" fill="#F1F1F1"/>
</svg>
